/* XPM */
static char *_08d87783b2e4d59ac5a442e1abe90c2[] = {
/* columns rows colors chars-per-pixel */
"64 64 256 2 ",
"   c #02050D",
".  c #040B13",
"X  c #0A0C16",
"o  c #140D19",
"O  c #0C131C",
"+  c #091319",
"@  c #13141C",
"#  c #14171A",
"$  c #0C110D",
"%  c #350817",
"&  c #2F2911",
"*  c #0C1A23",
"=  c #141B23",
"-  c #191926",
";  c #1A1C38",
":  c #140E2F",
">  c #390629",
",  c #24182A",
"<  c #3B0838",
"1  c #271638",
"2  c #2D0F33",
"3  c #1A232B",
"4  c #1A2833",
"5  c #142B33",
"6  c #23272B",
"7  c #232C35",
"8  c #252637",
"9  c #2A333C",
"0  c #27343B",
"q  c #343537",
"w  c #4B310D",
"e  c #6B3702",
"r  c #480339",
"t  c #54003C",
"y  c #430530",
"u  c #334538",
"i  c #75470B",
"p  c #5B4D32",
"a  c #645424",
"s  c #361847",
"d  c #381B56",
"f  c #370F47",
"g  c #15364E",
"h  c #2D3B43",
"j  c #2A3746",
"k  c #323D45",
"l  c #353E4A",
"z  c #383B49",
"x  c #3B3D55",
"c  c #2F2D52",
"v  c #373267",
"b  c #1E2856",
"n  c #4A0848",
"m  c #580348",
"M  c #460C54",
"N  c #580557",
"B  c #471758",
"V  c #4E124E",
"C  c #64014C",
"Z  c #670456",
"A  c #770058",
"S  c #77024C",
"D  c #442B58",
"F  c #453553",
"G  c #53186A",
"H  c #770467",
"J  c #70106F",
"K  c #472667",
"L  c #4A2974",
"P  c #582779",
"I  c #563477",
"U  c #4D3370",
"Y  c #6E287A",
"T  c #174757",
"R  c #2C4146",
"E  c #36444C",
"W  c #39454E",
"Q  c #35494D",
"!  c #3B494D",
"~  c #364545",
"^  c #28465A",
"/  c #354452",
"(  c #3B4651",
")  c #354A52",
"_  c #3C4952",
"`  c #39465A",
"'  c #395258",
"]  c #1C4E6F",
"[  c #244868",
"{  c #26546A",
"}  c #264975",
"|  c #265777",
" . c #36516E",
".. c #326776",
"X. c #2A6560",
"o. c #45484B",
"O. c #424C54",
"+. c #434755",
"@. c #44515B",
"#. c #4A555C",
"$. c #525552",
"%. c #736E53",
"&. c #4B5863",
"*. c #51506B",
"=. c #62457A",
"-. c #58636B",
";. c #537267",
":. c #69706D",
">. c #5B6150",
",. c #8F530B",
"<. c #A65903",
"1. c #B56C04",
"2. c #9C6B22",
"3. c #C67405",
"4. c #890159",
"5. c #870268",
"6. c #960367",
"7. c #8A0378",
"8. c #980279",
"9. c #AA0772",
"0. c #A83063",
"q. c #887956",
"w. c #A75C66",
"e. c #C56677",
"r. c #708465",
"t. c #AE8B22",
"y. c #D89603",
"u. c #D18901",
"i. c #E4A803",
"p. c #EAB404",
"a. c #F2BD01",
"s. c #EFB118",
"d. c #DAA221",
"f. c #F1C203",
"g. c #FBC327",
"h. c #9A8455",
"j. c #B18F6B",
"k. c #AA9466",
"l. c #C49C71",
"z. c #C9A77A",
"x. c #CAB276",
"c. c #E1B643",
"v. c #751688",
"b. c #563887",
"n. c #54318A",
"m. c #6B3091",
"M. c #6E35A9",
"N. c #5B3AAA",
"B. c #394A88",
"V. c #2A5A85",
"C. c #36548B",
"Z. c #2A6686",
"A. c #34789A",
"S. c #2E718C",
"D. c #377AA3",
"F. c #1E5483",
"G. c #594386",
"H. c #584697",
"J. c #48508C",
"K. c #6A4A94",
"L. c #4A7497",
"P. c #564FA3",
"I. c #6947A6",
"U. c #7446A9",
"Y. c #794BB4",
"T. c #7255AF",
"R. c #4F73A8",
"E. c #7470AE",
"W. c #686B95",
"Q. c #7662CB",
"!. c #91088B",
"~. c #A70089",
"^. c #B70196",
"/. c #A90598",
"(. c #893093",
"). c #9313AE",
"_. c #A905A6",
"`. c #B803A5",
"'. c #B603B6",
"]. c #AB0EB1",
"[. c #9035B4",
"{. c #AE34A4",
"}. c #C702B4",
"|. c #91479A",
" X c #8647B9",
".X c #8F52B7",
"XX c #9165B1",
"oX c #B675BA",
"OX c #A162A3",
"+X c #CB6384",
"@X c #BA05C6",
"#X c #B115C8",
"$X c #B234D2",
"%X c #9E3CC6",
"&X c #CC09CC",
"*X c #D204E7",
"=X c #EB04FA",
"-X c #F704FB",
";X c #EC0DF1",
":X c #EF30F4",
">X c #D02DD0",
",X c #934BC3",
"<X c #A64ACB",
"1X c #9470CD",
"2X c #AC74D1",
"3X c #A574E9",
"4X c #D75BDD",
"5X c #168E94",
"6X c #2E8692",
"7X c #3690AF",
"8X c #14AAAF",
"9X c #458899",
"0X c #479AB9",
"qX c #4990AE",
"wX c #708CB3",
"eX c #4FA4BA",
"rX c #6A9DAD",
"tX c #2AB4CC",
"yX c #19ACC2",
"uX c #56A9C6",
"iX c #4BB1CD",
"pX c #71AFCC",
"aX c #61A1CD",
"sX c #0FC9CD",
"dX c #6AC8D7",
"fX c #7ECEE5",
"gX c #868B90",
"hX c #9788B0",
"jX c #ADABB4",
"kX c #AFB09C",
"lX c #CA9185",
"zX c #CFB08A",
"xX c #EBB7A7",
"cX c #E7CE90",
"vX c #E9D4AC",
"bX c #F0E7B7",
"nX c #D3D8BA",
"mX c #8F92D0",
"MX c #B090D0",
"NX c #ABACCE",
"BX c #B393E7",
"VX c #9DAFD0",
"CX c #CDA8D7",
"ZX c #CEB1E7",
"AX c #F4B5F4",
"SX c #DB97DA",
"DX c #B1C6D4",
"FX c #9FD8E3",
"GX c #F9EDC7",
"HX c #D6C9EA",
"JX c #F6D0F4",
"KX c #CFEEF1",
"LX c #F9FCFB",
"PX c #ECEEF3",
"IX c #D5CBD8",
"UX c #B1C6B3",
/* pixels */
"O._ _ W E W W ( E W ( E ( E W E E _ ( E _ h l l W W 4 3 ! E W ) , 4 E ( W E ! ( ( W ! Q Q ` 7 6 / Q / / ( 4 ! W W W W ( E W W E ",
"_ E E W ( ( E E E W ( _ E W E ( ( E _ _ E 9 * + = O . O E W ( E # j W E ~ _ E E Q E W W W x - 7 ) l ~ o.l E E ) E E _ W _ W E W ",
"l h h E W W E E ( E W W E W 0 ( W E _ E l O h -.&.@.9 O 7 +.W W X ( W ( W O.%.t.t.2.p o.) E # Q W ) W ( / R _ ( E _ E E E W W E ",
"( E W _ W W W _ ( W _ E E _ ( E W O.3 3 * 3 W E W W ( @.= k W O k Q ) W t.f.a.a.a.a.p.i.y.w l _ Q ( _ W 4 ) ~ x ( E k O._ E W _ ",
"( W ( W E E E E W E W l _ W k _ ! _ X X = W _ E E _ _ E W + k 9 6 E Q a a.f.y.1.p.p.i.i.y.u.1.o.^ F Q Q X ( E ) ( 9 W E ( W E E ",
"W E W E E _ ( W W _ W _ E E _ E E 7 X . 9 W E ( E &.&.W W 3 7 6 4 @.x t.f.a.d.c.p.p.i.y.y.u.u.1.p ! E z . - h E 4 3 ( W ( W ( W ",
"( E W W W ( W E W E E _ W W E ! h O X 7 7 W E E k _ _ @.W k   O 3 ` / d.f.f.f.p.p.i.i.y.y.1.1.1.1.o._ 6 @ - + - ( k h E ( E E ( ",
"W E ( ( E E W _ ( W W W E W _ h O 4 #.@.k ! k h W E E k W l @ X @.jXPXg.g.a.p.i.u.i.y.y.u.1.u.3.3.,.W + :.gXq ) E +.#.E W W E W ",
"Q E ( W W _ l W Q / W Q u _ h O 7 _ _ &.( l 0 0 Q l k Q E l @ :.LXLXLXs.s.g.i.1.,.y.y.u.u.1.<.<.1.<.* - o.:.@.W W E W W W E ( E ",
"W E 9 ~ k l 9 E W W j ( h 4 = O #.#.#.W W W #.@.W W ( / Q ~ gXLXLXLXLXi.y.3.1.i ,.u.3.3.3.3.,.i 3.<.@.= -.-.~ E E ( W E ( W W ( ",
"_ E Q Q &.l 6 + * ! ( h -   @ / W E E ( W W _ ) ( Q ) ( ) :.LXLXLXLXbXy.3.<.,.e 2.3.3.1.1.<.<.<.,.p _ . E W ( _ h E ( ( W E W E ",
"W _ E / / ( W ! Q W E E l kXvXbX-.W ( / E Q Q E E ) E W E KXPXLXPXLXcXy.3.<.,.,.,.i ,.2.,.i i e w ~ / o 9 E l / O.W W W W W _ ( ",
"W ( _ / ( E ( / E E >.zXbXbXGXGXGXnX:._ E E W ( o.E 0 # &.VXKXLXLXPXcXy.<.,.i i e w e w w & & & 9X..+.X 4 ` Q +._ _ W E _ E E E ",
"! ( W W ! _ / / x k.vXbXbXbXGXbXGXGXGXkXo._ E ~ ! h +.~ wXpXVXPXPXKXbXu.1.i i e w w w & & & & R iXuX_ * l W / W W W ( E W W ( W ",
"Q _ E ~ Q _ o.>.z.cXzXlXzXvXGXbXx.zXzXjXhXz _ ` E Q E Q VXuXuXKXPXKXKXx.<.i w w w & & & & & & { 7XiX9X- 3 ! W ( W E W W W ( E 7 ",
"h / _ Q ) / %.x.zXw.e.+Xe.0.xXzX_ F =.K.=.F z ( ( W Q / rXeXeXpXKXFXFXFXx.a w w w & & & & 6 T Z.A.iXqX4 4 k R 9 9 k h 3 3 = O . ",
"8 ! ~ ( ` >.x.z.0.lXvXvXvX+XlXzX0 q F =.*.c 8 I =./ ! l 9XeX0XuXpXFXFXdXdXUXp w & & & & & 0 ] Z.S.iXqX9 X O X .   X X X .   3 9 ",
"* ! ` W >.j.l.e.0.xXcXcXxX0.e.cXzX$.j 8 8 8 6 F U F z R { 0X0XuXiXaXFXfXdXiXiXeX& & & 6 T ] | ..A.iX9X= -.-   0 #.( 9 + ! @.-.E ",
"8 ! ` 8 k.j.z.e.9.lXxXxXw.9.xXzXx.z.k.q.$.k E E q D , k 8 9X0XuXuXuXuXeXFXdXiXiXiXZ.| ] ] | Z.Z.6XuXS.+ o z @.@.( _ &._ _ E ( _ ",
"E W W h.w.w.l.z.lX+X9.6.e.zXx.x.l.k.%.@.( ( Q / E q , - , ^ eXeXeX0XqXqX7XqX0XiXiXiX7X| | | Z.S.qXuXL._ +._ E z ( E ( E E _ ( E ",
"E ! +.k.0.+XlXlX0.6.e.lXzXzXz.l.l.%.~ Q x E ~ ( R 7 6 - - 2 ^ 0X0XqXqXD.7XL.D.A.A.A.A.Z.| | Z.Z.0XeX .E Q ( E W E W E E _ E E _ ",
"/ l $.q.w.0.0.0.+XzXzXz.l.h.q.p p ( Q q l Q _ / _ ( W - - F 1 [ 7XD.D.A.A.A.S.S...| V.V.| | | A.eXL.x Q Q +.E ) W _ E W W W E E ",
"W ( :.h.q.j.lXz.z.z.j.p q F +.h O l = . h h W ) W W _ h @ 8 c ; ; | Z.Z.Z.V.V.| | | } { | } ..qX9X` _ E W ( ! E ( E W W W E _ W ",
"( W r.q.h.j.l.l.h.u h O E ! Q @.9 @ 4 7 * * 9 ! ! E ! 0 - 1 1 c 6 o c { | } { [ [ T T [ ^ ] A.6X` W W Q Q E ( ! E _ ( E ( ( E ( ",
"6 ! r.%.h.k.k.u 0 E W X W ) ( ~ / ' _ ` k $ . 7 ( ( Q g 1 , c j ; 8 - o = j [ [ g g g ^ T Z.yX3 k E _ ( W E E E E W W ( _ ( W E ",
"_ ( :.q.h.%.u W k h _ @ E ) x W ( ( Q ) -.&.E $   ` { [ j - 8 j x 8 - - - = @ o o # o * o 3 ..-.k W W W W W W W W W W W W W W E ",
"E ) :.%.>.Q ( ` O._ W 7 k _ +.Q / W ( _ o.gXIXW...| { [ } g 5 - ; x x 4 - - o # o X o @ , X.@.` E W W W W W W W W W W W W W W W ",
") _ ;.$.Q W o.) ! E 7 _ ( ( W E ) _ / :.jXXXMX1X{ | V.S.A.V.T g 5 = 8 j 8 - = @ @ o o # T 4 ) ! E W W E W W W W W W W W W W W W ",
"+.W ;.) ( _ u W E ( 7 h E ! W Q ~ ` jXjXL. .T.1XW.qXuX0X7XS.F.} g g 5 ; ; - @ # # O o 5 8XX _ Q E W W W W W E W W W W W W W W W ",
"l Q ' +.W ) ! _ ( W = E _ ! ! ( #.IXrXL.qX7XC.K.1XNXDXeXD.S.V.} } [ g g g g 5 5 - 8 T 7XtX0 0 Q E W W W W W E W W W W W W W W W ",
"_ _ W W ! ` E _ E W . E E E ( hXPXNXL.0XuXpXDX.XT.hXDXrXC.C.F.} } [ [ [ g g g g g g | 7X7XW 6 4 W W W W W W E W W W W W W W W W ",
") _ Q W ! / ! W ( h +.! ( W x D B MXHXwXDXPXPXNXM.XXVXE.P.B.B.B.B.} } [ ] ] } g g g ^ 7X7X7X3 z _ ( W E W W E W E E E E W W W W ",
"E _ E ( ( E _ ( Q o E E _ W gXE.U G hXHXIXPXJXHXU..XE.T.P.H.P.B.B.B.} } } } V.S.A.| [ ..7X0X` O h ! E Q ( Q _ W W W E E E E W W ",
"4 h k 7 _ W W _ O l _ _ ! -.DXwXK.G.v.MXZXZXJXAX1XY.K.[.U.I.P.H.H.J.B.B.} V.V.S.7X9XL.wXVXR...3 ` _ _ ( ( W E ( E W E E E E ( ( ",
"  . O . = - 7 - O ! / ( W DXpXmXT.:XSXn.1XCXAXAX4X XK.%X,X,XT.I.P.H.H.J.J.B.C.L.R.wXwXE.PX1XmXW._ E E E ) W E ( W W E E W E W E ",
"- 7 7 9 6 . .   + # j W :.DXmXBX4XJXJX.XI.1XSX:X;X.XK.#X>X<X,XY.U.U.I.H.H.H.P.E.E.2X2X.XHXK.v v ` _ ! ( _ W _ W W W E W W W W E ",
"&.-.&.-.#.h h E q $ . = NXpXmXMX4XJXJXCXm. X.X;X=X<XY.).;X>X<X[. XY.U.I.I.U. X.X$X}.'.{.MXs W.L.c ` E E ( E _ W E W E W E E W W ",
"@._ E E _ @.&.&.-.-.@.X DXpXmX4XAXJXJXAXXXm.K.*X-X$X,Xn.;X:X:X$X%X[.[.[.[.,X$X&X}.^.~.OXNXN T.R. . .E E ( W E E E W W E l k E _ ",
"W W ( E W W W W Q ` 4 $.mXE.MX>XJXJXJXAX4Xm.b.U.=X*X,XI @X-X:X:X$X$X$X$X$X>X}.'.^.9.9.|.1XZ ].J.J...E W ( _ W ( W W W W E k E W ",
"W ( E _ _ E W W ( Q 4 DXW.PXM.oXJXIXAXAX:X).b.G.*X=X%Xm.).-X-X;X;X;X;X*X&X}.}.^.~.9.6.(.Y.N `.*.J.6XE ! W Q ! E W E E ( _ W ( W ",
"W W W W W E E W _ ~ XXZXBXPXG oXIXIXSX:X;X#XI.b.|.=X$XK.v.=X-X-X-X-X;X&X}.}.^./.!.9.6.(.Y.P ~.v L.6X5 _ ( / k W ( W ( W W ( ( E ",
"W W ( E ( E E E _ @.MX=.I U I 2XMXCX4X&X=X=XM.m.G.*X$X.XK =X-X-X-X&X`.^.'.~.MXXX5.8.6.7.[.M.J  .qX7X. - 8 9 h ( E W E W ( W E W ",
"W E _ _ ( h k ( h _ K D K m.J L 2X2X>X&X&X*X#XM.U ].#X<XK *X-X;X&X{.oXoX2XPXHX1 6.6.6.S ).I.M.J.qXtX&.@.6 . l ) ( _ W ( E ( E W ",
"E ( W W W _ ( ( ` _ ' *.G.|.OX|.L 1X).&X@X&X'.U.H.P #X<XI _.&X_.CXZXXXI K K.d , 5.5.5.S (..XI.N.J.8X( ( Q = j W W E E ( h 9 7 W ",
"W ( W E E W W E W ~ E R.=.K.oXoXm.I ,X].&X@X'.[.I.v v.<XK.J `.ZXMX2 f N N M d K 7.6.4.Z JX1Xs N.M.0XQ x +.= 9 _ +.W E 3 * X + + ",
"( E _ W W h k W W /  .PXLXZXBX3X|.s T.).'.@X@X_.U.v G <XU.N {.CX2 H ~.^.`.H n.U Z 4.4.J XXJ M 2 b.R.' +.Q 3 4 W k E 3 9 O.@.@.&.",
"W W _ E _ W ( W _ ( ZXU 2 f M B 1XT.H.v.'.@X'._.[.N.s  XT.M HX1 N /.^.^./.6.[.U V S S A Z 5.N.B s sX' W ! 7 X X   . k W ( _ W E ",
"E W W W ( W E W W _ U c H.).{.Y G U P.b._.].'.}.!.m.d b..XD jX< 8./.^.~.~.7.(.n.K S A A 4.~. XT.tX6XW ( E / - = 9 &._ ! E ) ( ( ",
"( ( ( E W W W ( ) ) x R.I.[.{.(.v.L K.b.!.].'._._.).n.s I.s 1 M ~.`.9.8.5.4.XXb.s C C Z 8./.Y.T.tX' Q ` E Q h X 9 ( _ E _ E E _ ",
"( W W W W _ E _ W R X qXJ.(.{.(.J M.I I v.!././._.7.m.L d 1 - M 8.8.~.7.5.H ZXs n m C Z 8.[. XQ.tX( W _ E ! E + 0 E W W ( _ _ E ",
"W E _ ( ) W _ E l O O.0X*.G.!.J J t H.I J !.!.!./.7.v.U L : 1 M 8.5.6.A Z Y T., m C Z H !.Y.Y.Q.6X/ ! _ _ E 0 O 4 E _ ( E E E W ",
"W W W ) ( E _ ( j O &.9XZ.` |.J Z m 1Xb.N H H 7.].!.J m.K d 1 f A H H Z m.U.2 y n M m J ).Y.Y.sX) _ ) 3 + * O k @._ E ( E _ _ E ",
"W W E ( _ E l E @ h / ' 7Xc MXZ N r BXP n Z H H 5.S Z v.G d 1 f 7.A N G.2 < < r r M J v.Y.T.T.S.q E 0 . 7 +.&.E E E W ( _ E E ( ",
"E W _ W W 4 9   + _ W E A.}  XZ C > BXd n N m Z Z Z Z N v.d 1 d N m r V n < < r V B J (.U.I.sX) 3 -   9 &.( Q W _ E _ W E E W E ",
"_ W W E W E :.o.h W l ) j V.M.Y m ZXXXI.< r m N m t t t n G s d K r r < < > < f M N v.m.I.E...W k   - Q Q Q ( +.E E W E ( _ E W ",
"W E ( W W @.:.-.) ! W _ 0 ] b.1XPXE.M P K r r r r r t r < r M d n.P > > > > < y V J L b.P.sX_ W 7 = k @.W Q ( W _ W W W W _ E ( ",
"( W W W W W W W E ( ) E O j [ b f M n m t t r r < r y y > > < f d N.n.2 2 > f n J L v U 7X_ / _ 7 4 @.E W W _ E W W ( W W W W ( ",
"W W W ( W W E E ( W E ! * h `  .b v G H A m m n r y > > > > % > 2 c N.Q.G.B n V B L v S.X.W W ) 3 = _ ( E ( W _ W W ( W W W W W ",
"E E W ( W W W E Q ( +.W * k / ` V.v K P J 5.A Z m t t y y > > % % G.G.n.P.T.NXHXIXNXhX5Xo.W ! 7 + = _ E W W W E W ( ( W W W W W ",
"W W W ( W ( _ ( ) ( E _ O @ h W +.` v L P n.J 5.H A C m t t t y 2 2Xd 2 2 1 : 1 b ; 5X .( _ E _ 3 + W _ W W W ( W W W W W W W W ",
"_ ( _ _ W W ( W W W W z - @.Q _ E ! ( U L P P P n.J 5.5.A C m t n G.< > 1 * : g sXX./ ) / ! _ +.# = 7 E W W h j W W W E E W W W ",
"E E W ( W W W W _ Q ! @ 9 ) ( E ( ) ( ! E x K L L G Y G G G B V d 1 1 ; ; ; 5X5X' ~ _ Q E / ( ( = 9 ( E W ( 0 0 W W W E E E W W ",
"E E W W W W ( ( ( Q Q + _ / +.( / +.( Q E / _ ( D D K K K B d d s ; ; T 5X5X..Q / +.E W ! W ~ E = 0 ( _ E E @._ ( ( W W W W W W ",
"_ ( ( W E E W ( ) W 3 O l ( E ) ! ! ! _ _ ! W ( W k O z D c c v | Z.5XS.X./ ` h 9 7 3 9 / ( Q _ + k E E W ! W _ W W W W W W W W "
};
