/* XPM */
static char *_50c4d7c86f94a0ce0ff6554ced03354IkahWWitkK7oRUpk[] = {
/* columns rows colors chars-per-pixel */
"64 64 150 2 ",
"   c #00040D",
".  c #020711",
"X  c #040B14",
"o  c #090D15",
"O  c #050F18",
"+  c #0A0E19",
"@  c #071017",
"#  c #0C1117",
"$  c #07111A",
"%  c #0B131D",
"&  c #0F181F",
"*  c #11151C",
"=  c #19161F",
"-  c #171A1F",
";  c #0D1720",
":  c #0E1821",
">  c #111621",
",  c #131B24",
"<  c #191D25",
"1  c #151F28",
"2  c #1A1E28",
"3  c #172027",
"4  c #1C2127",
"5  c #16212A",
"6  c #1B232C",
"7  c #1D2630",
"8  c #1E2932",
"9  c #23252D",
"0  c #232732",
"q  c #232C34",
"w  c #282C37",
"e  c #242E38",
"r  c #273137",
"t  c #2D3236",
"y  c #26323A",
"u  c #2A343D",
"i  c #2F383F",
"p  c #30353D",
"a  c #2D3640",
"s  c #2D3A43",
"d  c #303741",
"f  c #323D46",
"g  c #343F48",
"h  c #3B3F4A",
"j  c #364147",
"k  c #36434C",
"l  c #3D464F",
"z  c #3C454E",
"x  c #39454E",
"c  c #37484F",
"v  c #39484F",
"b  c #3A484F",
"n  c #344451",
"m  c #374550",
"M  c #364451",
"N  c #364751",
"B  c #364550",
"V  c #384450",
"C  c #394551",
"Z  c #3A4450",
"A  c #3B4551",
"S  c #394750",
"D  c #384651",
"F  c #3A4750",
"G  c #384653",
"H  c #3A4652",
"J  c #3B4753",
"K  c #3C4650",
"L  c #3D4750",
"P  c #3D4751",
"I  c #3E4750",
"U  c #3A4750",
"Y  c #374951",
"T  c #3B4850",
"R  c #3A4950",
"E  c #3A4851",
"W  c #3B4851",
"Q  c #3B4952",
"!  c #3A4853",
"~  c #394A52",
"^  c #3E4851",
"/  c #3F4851",
"(  c #3C4952",
")  c #3E4852",
"_  c #3F4953",
"`  c #3D4A52",
"'  c #3C4A53",
"]  c #3D4A53",
"[  c #3B4954",
"{  c #3E4B54",
"}  c #3E4C55",
"|  c #3F4C55",
" . c #3C4952",
".. c #404447",
"X. c #404751",
"o. c #414B55",
"O. c #404D55",
"+. c #404D56",
"@. c #404E57",
"#. c #414E57",
"$. c #444E57",
"%. c #414B54",
"&. c #494C53",
"*. c #424F58",
"=. c #464F58",
"-. c #444E59",
";. c #47515A",
":. c #44525B",
">. c #46535C",
",. c #47545D",
"<. c #45525B",
"1. c #485359",
"2. c #49525B",
"3. c #48525C",
"4. c #49535C",
"5. c #49535D",
"6. c #4B545D",
"7. c #48555E",
"8. c #49565E",
"9. c #49565F",
"0. c #49535C",
"q. c #47585F",
"w. c #4F585F",
"e. c #495760",
"r. c #4D5760",
"t. c #4C5760",
"y. c #4C5962",
"u. c #4D5A63",
"i. c #4D5B64",
"p. c #4D5A62",
"a. c #525661",
"s. c #535D67",
"d. c #555C64",
"f. c #535D65",
"g. c #545E69",
"h. c #5B5F68",
"j. c #5F6062",
"k. c #54656C",
"l. c #56616A",
"z. c #58616A",
"x. c #5B646E",
"c. c #59686F",
"v. c #5C6670",
"b. c #666A6D",
"n. c #6C6A6D",
"m. c #646B73",
"M. c #6F7478",
"N. c #737C83",
"B. c #858384",
"V. c #828282",
/* pixels */
"#.( W x k x x F k x F k F k x k k W F k W s g h x k 8 6 l k F N < 7 k F F F k W x F x F k k y 7 F k k x k e x z x x x F k x x k ",
"( k k x F F k k k x F ( k x k F K k W W k u : $ , % X & k x W j , u k k k F k k ( k k k F k , q k W x k x k k x k k ( x W x k x ",
"g s s k x x k k F k x x k x y F k k W k g % a k.r.1.u % q ( x k % g F k F k x k k x F k F k , x k x x k k j F x k ( k k k x x k ",
"F k x W x x x W F x ( k k ( F k x #.5 6 > 5 k k x x l ;.: g k % u $.k k ( x F x F x k k x 1 k k x F k ( q k x N K k f #.( k x W ",
"F x F x k k k k x k x g { x f ( v ( + + < x W k k W } x k $ f u 7 k k x x k k x k k k x s . f l k [ F k O l ( N K u x k F x k k ",
"x k x k k W F x x W x ( k k { k k q + X u x k K k e.i.F k 6 0 9 e x x k k ( x k W F W k k s & k ( g F k . < a N 7 6 K x F x F x ",
"F k x x x F x k x k k ( x x k F a & + w q x k k f ( #.;.x g . % 6 k F F k W x x k k W k k k O u k x F 0 * 9 * 5 K f s k F k k F ",
"x k F F k k x ( F x x x k x W s % 7 8.1.g l f s k k x f x g * o q F j j k x k F x k k W x K : K r y k % n.B.t K k o.4.k x x k x ",
"x x x x x l k K x k W k g K a ; 8 } *.,.x f u y k k f x x k % 2 u x k W k x x F k ( k x x k q u ( f & , &.m.=.k x k x x x k F k ",
"k k f k g g e f k k s x f 6 ; , y.8.>.x x x y.8.k k k x x f : 0 k k ( } j ( W k g k x F x k $ K k 4.8., f.z.k F k F x j F x x F ",
"{ k x k s.k 8 : , k ( u ,   , l x k k k F F x k F j W F k x 6 7 k F F W x ( k x ,.k x x x % x K k F k $ k ( k k s j W F x k x k ",
"k ( k k F K k K l k K x q < w.x W x x k F F k x k F x f f < , $ s x k W F k F ( k x ( x x 6 k l k k k O u k k F #.x x x x x { F ",
"F F ( k x k W x x k k k y & ( x x k W W f x x k K k q 5 .   6 4.7 ( ( k x k k x ( x x k k g u K x ( K % 7 k F x W W x k W k k k ",
"W x k ( x k x k s W M F e : j [ x x x x g W x W K f ( s < > K l.>.k k F x W W F j F W k ( q , k x k k & g x K x x x F k x x K x ",
"x x g x x F F F s { g K 6 5 k k k k x s ( k k x x k x l 2 0 4.k k x W k k x k s ( k j x k o.$ a ( j x 1 5 K k k x k x k x K k q ",
"s F F x F k x x s u f , . l k x x x k W F F x k F k c x < X.k n x f y f ( x F x k W k x k ( 5 5 j W k 8 5 s j u u f a 6 5 < & . ",
"q x k x x K k x p X 4 X y F k k w f x W W k ( k k k F f , g x N x u k u x k c k x F x k c k s 8 k x k w + * X o   + + + .   6 r ",
"5 x #.x x k K % .     r $.k F F N.f K k k ( k F k W k s & i x F k f f 4.x x x x k x k W k k g < K y ; 5 h., . r 8.K u $ l =.l.k ",
"8 ( F 8 ; q u 8.1.w X k x W k x #.k k k x k F k k x k x 5 3 ( k F F K K F k { k ( k x k x k . . . . X % % g 8.;.F { e.{ { k F W ",
"W W W } s.k k k l l % l K s f o.F } x x F x k x x x x x g O g ( k W k k k f k F j ( K y , l % 9 l f.r.=.( F F k F k F k k { F k ",
"W k x x x x k F x l , > 6 % % f k F k k k ( k k g q k x k , u x k k v x k y a y q $ 6 u ,.;.& 0 y.} j k W k x F k x k k ( k k ( ",
"k F x g x F g j x k 6 X u =.K 5 f ( x a g k F F K F F x f 6 6 u & 6 0 3 , & . 4 1.$.;.F k ,.5 6 s k W f x { k F x ( k x k x k k ",
"k x x ( W k ( F k ( u & g x W a $ g < @ f f F k k W F x 7 O ; % w X 5 g s.8.r . 0 k x k } ( , * 8 W k ( k x W x F k x x x k ( x ",
"F x k W k x x x F k u & k W k ;.p & 6 w & , s W K k F y , O k f.g.e.s k k k y.g 3 % a x j u   = f K k x x k x k k W F k F F k F ",
"8 f F k x x k k y x l $ x { k x g ;.x } f %   q ( l x 5 ; 6 f [ x k k F x k ( y.s.k X p #   % & f k W F x k k k k x x F W F x k ",
"k ( W k x F k k j s x $ k k x x ( x F x s.r.k $ . % O > O k #.k k k x x x k x W k ( ( , + l 1.g.f k x x x x x x x x x x x x x k ",
"x x x x x x x x } x ( y f F k x k x k { { l.v.s.u > 0 X s } k l x F x k x W x k k k x ;., g 8.x k x x x x x x x x x x x x x x x ",
"x x x W x x x x k x 0 X.K F x k W W x k k k j x 8 O < k #.F k l x x x k x x k k k F x k 5 5 x N k x x k x x x x x x x x x x x x ",
"( F x x x x F x F K 6 g F k W F x k W k F k W F < , ( 8.K K F j a g x F W F x x W k x K o.% F F k x x x x x k x x x x x x x x x ",
"k x x k k x F F k l 1 k F [ k x F k j k g F x k + u ,.Y x k k u q s k k k x x x x K x x k q u k k x x x x x k x x x x x x x x x ",
"k W ( F F x k F F g O k k N W k k #.x k k F W k < 5 y k k k ( ( k F ( x x x F F k F x x k ( 5 7 x x x x x x k x x x x x x x x x ",
"F F k k W F k F x f X.K k [ f q s k k K ( k x x r > q K N k k z x x k x F k k W W k F k x K < k W F x k x x k x k k k k x x x x ",
"k { F F F k F F k % K k k F k o.x x W x K k K x u % e _ F x K x x W x x k x x F G F x F N Y ( % s x k x k x x F x x k k k k x x ",
"7 s f q W x x W , f x F x k F :.l k x k W k k k j O f k ( x F k x x x x x x x x N x l x k F u 4 ( ( k x ( W k k k x k k k k F F ",
"  X % X < 2 w 2 & ( K k x k k j k [ [ { k x K l z O g x k k F x x x F k W x F x x k z x ( k % X.x k x x x k x ( x x k k x k x k ",
"< q q t 9 X X   $ , f ( x x ( x x F k x W k W f 4 + 3 k W W x x x x x k x x x x x x K k k k 6 K x k W k x x F x x x k x x x x k ",
"y.c.y.l.8.s s k s % X ; 0 f g s K l ( ( u r 8 X   t 5 r K x k k x x x x k x x x W F k { k x $ k F x W k x x F k k x k x k k x x ",
";.( k k W :.i.i.l.x.X.$ < : % ; j k f 6 O . + q 1.5 w O , 6 K x x F k x k x x F k N k F l k $ 7 x x x x x k x x k x x k g f k W ",
"k k K k x x x x k { w O 1.x.y.( + +   . #.y.( k k f.k + X q x k x x x x x F F x K x k x z - - * k ( k F ( x F k x x x x k f k x ",
"x F k W W k x x N k 6 6 g k W F #.u u l.( k { k Y k r.k < , k W F x F x ( F F k k k F f 9 V.V.< 8 k k F x k W x x k k F W x F x ",
"x x x x x k k x F x u 7 k x W k { #.k k x x k k ( k =.>.q X g k k x k F x k K K F x x g l f.f.f & 6 q l x l f v F x K x k K F k ",
"x x F k F j k k x x x $ , k F k ( x u x x k s k k k F ( r + 7 k F ( x k k F ( k x k x W x x X.X., X $ : q r u v k x k x F x k x ",
"x k ( W F a f F k x k & 0 x F W x W f W x x k F ( ( k k k 4 , W k x F W W F k k x W x k x x k l =.8.i.e.6 O j W F W x F k F j x ",
"k F x x x W F F { g g % 6 ( x x k ( F x x x W x k x F x K f & x F k x x x k g k k x x x W k k W x k k x #., u k x k k F a u y x ",
"x F x k k x x k x x e , , ( x F F x k x W x x x v ( { k x f X u W k x k ( W u 6 k x F k k F F N x x W k x , u ( o.x k 5 ; O $ $ ",
"F k W x x a f x W k k q X : o.{ W x k ( x F k F k K F x W t X 5 k F { W k k x ( ( k k x ( x x x =.k k { k 8 8 x g k 5 u #.;.=.r.",
"x x W k ( x W x k x K u % u k W k x F F k F x x k x F W x , 2 % x k k x F x x x x W W k k x F x x F k k l q $ X   O f x F W x k ",
"k x x x F F k x x k K 7 < y x W x k F k W W W k ( x k k a * a.k f k k x x x ( x x x k x W k k ( K x F k k X.& < i f.( v k N F F ",
"F F F k x x x F N x g < o * r Z W f s ( x F x x c x x y & =.*.:.x j k x { k k x F k k k x k x ( x x k k W x r % u F W k W k k W ",
"F x x x x { k ( x k X 5 6 X % ; u ;.x k W F x W x F ( 5 f F F F k } x W k ( ( x F F x W x W x F k x F k j x l % y k x x F ( ( k ",
"x k W F N x ( k g % =.r.X.0 7 s.e.k W #.k x x x x k k 8 k x F K x x j F F W F x ( x x k x k W x k k W ( o.k d % 7 k W F k k k x ",
"x x x N F k ( K r : *.>.r.k 8 l k ( x k ( F x j g K 5 q K K k k F x { x k ( k x k x x ( x ( k g c W x 7 $ , $ g ;.( k F k W ( k ",
"x x k F ( k g k & f k F x 6 y k x ( x x F k F } x x X   q g , j x k 7 F ( k ( x F x W j x k ( x s k r . q } y.x k k x F ( k k F ",
"k x W F x 8 t   & x F k k $ y x W k ( x x ( k F x w + <   , i.q.k ( k F k x W x k W x F k W x x < <   a g.x k k ( k W x k k x k ",
"( x x k x k M...u ( k x 0 X X.k x F k W x x F W s X f l.s.f x k x k W x ( x x x W x x j k k F F f . < k F k W x k k x k F W k x ",
"x k F x x 1.b.j.( k F x u 6 k F k F W W x ( y 8 + k { k Y k F K F x x x k W k x x x k x x F x k y : g #.k x K k W x x x x ( k F ",
"F x x x x x x x x k x l % r k x ( k ( x k k g O f ;.k ( k x F F x x x x x x x x x k x W k k F F q 7 *.k x k ( k x x F x x x x F ",
"x x x F x x k k k ( k x % a F F K k k k ( x k 6 y W x k ( W k x x x x x x x x x x F ( x k F ( x 5 , { W k K k W x x F x x x x x ",
"k k x F x x x k k k x ( , f F k x x ( F F x x q 8 x ( x x k F x x x x x x x x x F x x F { } j e # , W k x k x k x F F x x x x x ",
"x x x F x F W F ( k x K ; ; s k F k F x F x k 8 $ x x x x W x k F x x F x k x F x x W F k k W } 4 $ x W x x x F x x x x x x x x ",
"W F W W x x F x x W x f 5 =.k x k F F x x k { 8.u s K x x W k F x x x x x k x W W x x F ( ( x x * , y k x k s a x x x k k x x x ",
"k k x F x x x x F x l $ a x x F x x x F W x k k l & x F F x k x x F F x x x F W x W F k x x F W < r F k x K u y x x x k k k x x ",
"k k x x x x F F x x x O k l k x W x F k g x { F X.w u s k F k x x F F x F W F k x F x k F x x W , y F [ k k ;.( F F x x x x x x ",
"W F F x k k x F F x 1 , g W F x F x x { { F k x x f X j x x W k x x x x x W k g u 8 8 u F ( x W $ f k k x l k ( x x x x x x x x "
};
