/* XPM */
static char *_806da03a30e4d1fa74882b83adfaf5b[] = {
/* columns rows colors chars-per-pixel */
"64 64 256 2 ",
"   c #251C04",
".  c #2B0719",
"X  c #35081D",
"o  c #2E1F18",
"O  c #1E2301",
"+  c #242302",
"@  c #272704",
"#  c #2B3706",
"$  c #333B0B",
"%  c #353915",
"&  c #292D15",
"*  c #191937",
"=  c #15172E",
"-  c #2C0925",
";  c #350A23",
":  c #3B0B25",
">  c #3D0D2A",
",  c #380625",
"<  c #27182B",
"1  c #391228",
"2  c #271C36",
"3  c #3D1D35",
"4  c #381A35",
"5  c #3D0B30",
"6  c #1B253B",
"7  c #182F37",
"8  c #25243B",
"9  c #2C233C",
"0  c #292739",
"q  c #33243C",
"w  c #3C223A",
"e  c #332B3D",
"r  c #382736",
"t  c #38343C",
"y  c #2D352D",
"u  c #14061F",
"i  c #420C2B",
"p  c #440928",
"a  c #43122C",
"s  c #4B132C",
"d  c #45172A",
"f  c #460D36",
"g  c #451533",
"h  c #4B1533",
"j  c #441A35",
"k  c #431E3B",
"l  c #491838",
"z  c #521836",
"x  c #51112C",
"c  c #45233C",
"v  c #4A2139",
"b  c #56243A",
"n  c #493529",
"m  c #66293C",
"M  c #412A1A",
"N  c #3A4909",
"B  c #3A4919",
"V  c #3D5418",
"C  c #384F0E",
"Z  c #3B4725",
"A  c #354B39",
"S  c #3E6D36",
"D  c #44570C",
"F  c #434B19",
"G  c #445B14",
"H  c #425419",
"J  c #465917",
"K  c #444C0E",
"L  c #4A680B",
"P  c #4B6314",
"I  c #486619",
"U  c #536914",
"Y  c #4F6E10",
"T  c #48512D",
"R  c #47742E",
"E  c #121A47",
"W  c #1B2846",
"Q  c #19364B",
"!  c #173855",
"~  c #0F3250",
"^  c #232B44",
"/  c #2D2B43",
"(  c #232C4B",
")  c #272746",
"_  c #342642",
"`  c #332C44",
"'  c #3A2B45",
"]  c #342D4B",
"[  c #3C2847",
"{  c #2B3245",
"}  c #23334B",
"|  c #2D334B",
" . c #283949",
".. c #323245",
"X. c #34344B",
"o. c #3A344C",
"O. c #343A4D",
"+. c #3B394E",
"@. c #393644",
"#. c #372D52",
"$. c #2C3C55",
"%. c #253A57",
"&. c #353352",
"*. c #3C3653",
"=. c #3D3C53",
"-. c #373959",
";. c #2A2150",
":. c #13316C",
">. c #373B62",
",. c #2D396B",
"<. c #321D48",
"1. c #481C45",
"2. c #561B46",
"3. c #511553",
"4. c #691151",
"5. c #482848",
"6. c #572748",
"7. c #44354B",
"8. c #492954",
"9. c #5A2852",
"0. c #423D55",
"q. c #433E59",
"w. c #4A3755",
"e. c #553656",
"r. c #583448",
"t. c #682847",
"y. c #693156",
"u. c #581767",
"i. c #71096F",
"p. c #463766",
"a. c #4E3671",
"s. c #682F69",
"d. c #194558",
"f. c #1A525B",
"g. c #0F4958",
"h. c #29424D",
"j. c #29455A",
"k. c #334354",
"l. c #384659",
"z. c #28545A",
"x. c #34555E",
"c. c #39555D",
"v. c #36595B",
"b. c #344C4A",
"n. c #1A4A63",
"m. c #0B5B69",
"M. c #185B64",
"N. c #0B5271",
"B. c #284763",
"V. c #364C67",
"C. c #285765",
"Z. c #355562",
"A. c #3A5463",
"S. c #355A62",
"D. c #395869",
"F. c #395973",
"G. c #305274",
"H. c #18676B",
"J. c #196973",
"K. c #087678",
"L. c #106E73",
"P. c #28646A",
"I. c #386675",
"U. c #277579",
"Y. c #306972",
"T. c #434156",
"R. c #44435B",
"E. c #4A455C",
"W. c #4B495E",
"Q. c #474859",
"!. c #53495D",
"~. c #4D5251",
"^. c #4B7147",
"/. c #4E4D63",
"(. c #4D4C62",
"). c #494967",
"_. c #524D64",
"`. c #554B68",
"'. c #4D5266",
"]. c #46556A",
"[. c #525166",
"{. c #55536A",
"}. c #5A556D",
"|. c #59596E",
" X c #56596D",
".X c #465874",
"XX c #5A5972",
"oX c #494576",
"OX c #675571",
"+X c #466875",
"@X c #67647A",
"#X c #86055A",
"$X c #87076F",
"%X c #892961",
"&X c #498939",
"*X c #4B8B34",
"=X c #10847D",
"-X c #2B847D",
";X c #4F8A43",
":X c #3B893D",
">X c #2A3785",
",X c #750485",
"<X c #542F8E",
"1X c #5931A2",
"2X c #39558E",
"3X c #0F7583",
"4X c #397A84",
"5X c #2D7285",
"6X c #346FB5",
"7X c #1E57A3",
"8X c #4C4B8B",
"9X c #456B85",
"0X c #737288",
"qX c #6D6B84",
"wX c #5552A5",
"eX c #6A4AB4",
"rX c #4C71B9",
"tX c #604C87",
"yX c #2F74CE",
"uX c #6765DD",
"iX c #6339E5",
"pX c #930990",
"aX c #B20FB5",
"sX c #A3159F",
"dX c #A926CC",
"fX c #C154F5",
"gX c #B83CDB",
"hX c #058586",
"jX c #188985",
"kX c #199484",
"lX c #0A8E92",
"zX c #35898E",
"xX c #028AA6",
"cX c #0196A8",
"vX c #059CB2",
"bX c #379BAB",
"nX c #01A6A9",
"mX c #01A9B6",
"MX c #02B7B8",
"NX c #11B8AF",
"BX c #39A9B0",
"VX c #1BA79E",
"CX c #4C9098",
"ZX c #4894AD",
"AX c #45A7B1",
"SX c #7483AE",
"DX c #04C1B7",
"FX c #2CA3DB",
"GX c #519ADC",
"HX c #06D1CB",
"JX c #2AD2D6",
"KX c #03E9D5",
"LX c #02F9E6",
"PX c #03FCF8",
"IX c #20DBE5",
"UX c #4CC3C7",
/* pixels */
"XX|.|.|.|. X/.+.T.{.{.(.(.(.+.T.W.[.{.{.[./.[./.[.(._.(./.(.W.(.(.R.W.(.R.W.T./ / X.0.T.T.R.R.q.q.0.0.0.=.*.=.=.=.*.O.7.e / X.*.",
"|.XX|.|.[./.(.+.0.{.{./.(.(.+.T.(././._._./._./././._./.W.(.W.(.R.(.(.W.E.).q.X./ ` +.0.E.0.0.T.R.=.R.0.=.0.=.=.*.-.+.O./ | X.o.",
"|.|.{.[./.{.).X.=.}. X{.{.{.+.=.W.W.W._.[.[.[././._./././.(.(.W.W.W.W.W.E.E.0./ ] / 8 / 0.E.R.q.q.T.=.=.=.=.=.=.7.=.w.*.` 0 ..O.",
"|.|.|.{._._.W.X.=.}.{.'.[.{.+.+.W.W.W./._./././././.(.W.(.W.(.W.W.W.W.W.Q.W.T./ / X.0.0.R.=.0.T.=.R.=.0.=.=.0.=.-.o.*.X.[ ] { o.",
"|.|.|. X{._.R.` =.}.}.{.{.{.=.X.W.W.W./._./.[.{._._.T.(.R._.W.0.X.W.(.R.R.W.=./ / / =.R.R.=.=.=.*.=.=.0.=.=.O.*.-.*.0.] ] X.] *.",
"XX|. X|.}.[.R.` +.{.|.}.{./.+...W./._.{._.(././.W.R._.(.W.E.E.` ] 0.W.(.W.W.=./ / / =.R.R.0.=.*.-.R.=.=.=.=.+.=.o.=.l.[ _ 2.] +.",
"'.).E.R.0.+.X./ X.=.T.=.=.+.../ 0.R.W./._./._./.` {.(.W.0.0.` }.E.` o.E.E.R.*./ ) / X...+.0.R.q.E.'.*.=.X./ ` / ` ..o.[ #X#X1.0 ",
"-.] ) / / / ] / / / / / / / / / / ` ` ` ....X...8 ` ` / 8 2 ` @X`.q < 2 _ X./ / ) / / 9 ` / / ] ^ | 8 / / / 8 0 8 1.4.$X$Xi.3.) ",
"XXqXqXqX0X0X0X0X0X0X0X0X0XqX0X@X@X@X{._./.R.0.` / ` +.9 _ E.qX}.o.w.' o.7.'.q.q.}.{.{./.{.}.XX}.{._.(.W.0.0.=.o./ u.i.$XaX#X3.5 ",
"{.XX}.}.}.{.}.|.@X@X@X@X|.{.`././._.[.[._._./.O./ 0.7.o.@XE.e.` ' X.w.w.' | q.R.T.T.E.T.R.0.0.T.{.{.XXXXXX}.{.(._ ) u.i.i.e.(.[ ",
"_.}.{.{.{.{.{.}.[./. X[.{./.'.[._.[.[./._._.(.O.9 =.2 |.w.6 X.| |  .8 ] w.2 R.T.R.T.R.q.0.q.E.=.0.0.0.=.=.=.=.+.[ e O.o.5.X.X.9 ",
"(.{.}.}.}.{.{.[. X[._.[.[.`.`.`.'._.(.W._./.W.+.* < (.e./ } z.d.m.M.} 0 @.5.< / T.R.R.0.T.T.0.=.0.=.=.=.*.=.=.+.0 / +.*.*.] { <.",
"/.{.{.}.{.{.{.{.`.{.`.].[.[.CX/.[._.[.(.Q.R.0.2 u 4 _.] } C.H.Q H.H.M.} 9 7._ < q q.).=.T.=.=.0.+.X.+.+.+.=.=.+.r ] @. .` | e 8.",
"W.{.{.{.{.{.{.[.[.{._.`.'.'.`.'.(._._./.R.=._ 2 E.OX}. .f.f.! %.C.! f.d.} !.}._._ ' 0.0.=.l.T.+.=.+.+.X.@.=.=.*.q [ -.*.p.rX8X<X",
"/.{.{.{.{.{._.W.W.Q.'.`.{.'._.'._.[.(.(.0._ 8 +.|.`.E./ d.d.d.! n.d.d.%.Q *.w.XXR.8 ` q.R.=.T.*.X.X.+.+.+.=.*.O.w ] $...q.wXeXfX",
"(.{.{.{.{.[./.W.W.W._.{._.`.[.(._./.(.(.[ q ..].-XY.o.| ^ d.! ! n.Q d.W 8 ] D.Y.O./ 9 ` 0.0.=.=.+.+.+.+.+.=.*.O.3 ) =.o.X.-.sXaX",
"(.'.}.!.[.{.`././.!.[.[./.`.`.W.(.(.W.` ' ` +XS.D.z.k.] ^ ( ~ W d.! W 6 ^ _ h.c.c. ./ q 9 0.*.=.=.-.0.=.$.7.-.o.4 _ O.@.X.-.$X,X",
"Q.{.qX'.{.{.{._.{.'.'./.`.'././.'./.' ' ` A.A.S.A.v.z.o./ W W W ! W W 6 ` q S.S.x.]. .^ q _ 0.-.7.k.0.+.=.0.o.X.3 ^ *.*.+...o._ ",
"pX$Xp.+.o.l.T.=.=.=.*.*.X.X.O.+.X.' 2 8 l.S.S.D.S.k.Q z.o.X.^ 6 ) * / ` 2 P.C.c.c.A.x.h.0 2 ` X.X.`  .O.^ ` 7./ j 0 9 / 8 8 9 g ",
"gXaX2.a d a > 2.6.' 0 / ` X.O.X.X.2 8 k.D.S.S.A.( g.m.g.f.z._ e.` / _ 2 M.kXjXU.A.c.A.v.x.2 < 9 / 2 8 8 8 9 5.w.g g g g a 1 > > ",
"dXdX|.OXXXXX}.8.4XOX@X@XqXqXqXqX_.0.0.S.x.A.D.} m.L.m.Q - 8 A.}.7.@.< - z.=X=XjXz.S.A.c.S.k.8 < ] p.T.=.0.).ZX1.1 r e ..o.7.=.k.",
"XX{.`.W.'.`..XoXUXtX{.Q.[.{.{.R.[ [ D.D.].S.j.m.L.K.^ : X a 5 XX}.4 1 X . 0 jX5XU.P.S.A.c.S. .= 0 *.l.-.+.).IX3.[ *.&.&.#.o.O.o.",
"'./.).{.).'.).a.FXtX{.W.W._.(.' ' -.A.A.S.Z.m.K.K.2 X : 1 s l 5.E.6.a s X . 5 U.U.U.C.S.c.S.S.8 < O.7.*.7.-.ZXf ` @.O.o.X.X.&.#.",
"_.`.`.W._.!.R.p.oXOX).(./._.l.' +XZ.Z.Z.S.H.=X3X< X : a l t.6.6.6.6.6.b a . X . J.U.P.S.c.z.{ 8 2 / =.*.O.*.9.s | *.O.*.X.o.X. .",
"/./.(._.`./.l.7.2.!.!.W.).`.' l.A.v.D.Z.P.hXhX0 X > h b b t.9.r.9.r.6.6.v 5 1 . ; P.J.C.} ( } | 2 9 o.*.+.+.6.a ` o.X.O.&.O.X.X.",
"]./.(._.(.(.Q.` b 2 &.).).l._ +Xx.c.S.S.L.hXf.X : g b 6.6.y.y.6.2.r.r.r.6.f z p - < J.n.! { } Q / 2 _ *.*.O.6.a ` =.+.` ] ] o.X.",
"W.!.W.!.W.(.q.0 b !.w.W._.7.T.z.v.A.x.U.kXH.; X s z 6.9.y.9.Y.NXDXjX5.r.6.j v l ; X 0 g.g.%.} Q ^ 2 2 O.*.X.6.g ..&.] ` { X.o.X.",
"W./.).(.(.XX).q 6.E.W.Q.w._ D.S.c.S.A.-XkX2 X a l b 6.y.t.bXPXPXLXKXnXO.e.k 5.b h ; X ! N.n.} ( } ^ 2 / O...9.g t O...o.` ....X.",
").q.R.R.).XXR.9 t.k.(./.@.k.c.c.c.A.U.kXz.. 1 h g 6.9.y.Y.PXPXPXLXHXHXlX7.3 6.b z h ; < N.N.} } ( W 2 2 O.X.6.a 9 X.o.o.-.&.| #.",
"!.(.).).E.e.i.aX%X0.R.q.+.c.c.c.c.Z.=XkX< : l z g 2.9.5.HXLXPXLXKXHXMXMXz.w 9.6.b h 1 . ~ N.B.W ( W 2 2 / e 6.v c ` #.X.X.` X.#.",
"] @.t ` 8.i.pXfXaX$X) / 2 +XS.x.x.%.kXz.. a z z h 5.w.F.HXHXKXHXMXMXmXmXjXe.6.5.z l j : - m.N.%.( W 6 = = 2 w 6.4.#X4.9 6 [ | / ",
"t.t.m m t.i.,XpXpX).T.+.k.v.c.A.c.n.kX< : z h v 4 5.e.3XDXMXMXmXnXvXcXnXcX5.5.6.z v s a . } 3Xn.( ^ Q 9 9 0.@.5.pXaX$X4.pXdX>X^ ",
"!.e.E.E.E.).tXs.a.W.).7.+Xx.v.D.x.kXjX. i z z v a 5.e.3XmXmXcXxXxXxXxXnXcXk e.6.b z h h X . 3XN.W W W * 2 X.O.X.u.i.i.pXpXaXeX).",
"W.E.Q.W.W.).`.E.(.!.l._ c.D.S.c.Z.kX6 ; s x h z 5 6.e.3XnXcXxXxXxXxXcXvXcX5.5.8.v l z h ; X g.N.} ^ W * 2 / X.o.o.X.] 8.i.i.p./ ",
").).!.(.9.#X%X).E.E.)._ c.b.c.z.P.kX; X z s h z 5 e.8.J.mXvXcXxXxXxXcXvXcX7.8.e.5.z s h > X 6 N.! ( W 6 * ` o.o.o.@.e w.SX9X*.] ",
"Q.W.R.R.4.t.T R ~.).T._ }  . . .L.kX. s j s h l 1 1.6.C.MXmXmXmXmXmXnXmXlX5.8.k 1.z h s f : . N.M.%.%.} } X.X.X.&.| X.o.SX9X&.] ",
"E.E.Q.A T V G R R ~.T 0 *.%.%.h.hX .X d s h x h , 1.8.*.nXMXHXHXHXDXDXMXY.[ 5.k l j s s h a . m.5XB.B.j.%.| X.| &.| O.o.%X9.#.` ",
"l.@.Z B F V G I R ^.T _ X. .%.$.H.7 p : h z s l : 1.1.5.5XHXKXLXKXKXHXNXe.1.5.1.h j s h h g ; J.5Xj.%.%.j.] o.X.X.X.` 5.t.7.&./ ",
"7.y % B V V D G I &X~._ {  .j.$.d.g.> 1 s h g a : 1.5.5.8.NXLXPXPXLXKX.X7.4 v 5.l l j h h k : L.jXB.B.$.j.&.+.` ..{ ..5.b > | _ ",
"t & & % F F J J P R *XR._ Z. .%.d.L.: a d s l s i g l 1.8.e.zXPXPXJXw 5.8.1.c k k j j g j j ; K.zXB.j.B.j.| O.X.X.] #.v b r _ ..",
"7.+ # B F K N C C C R ~.0 Z.%.O.%.jX; 1 x s d s i g l 1.1.9.y.s.OXs.s.5.5.4 5.c 5.w 3 j c k t 3XzXB.B.j.B...&.j...] ` c b r _ ] ",
"=.O.B B V G P I R R & T._ k.$.%.%.lXX i s a a s > g g l l 2.6.9.y.y.e.e.5.3 k c j c r.!.Q.w._.U.4XG.B.! B.{ ..| ] ] ) b t.4 / | ",
"2 Z B F H D D I U *X^.0 < z.V.j.%.lXX i v 5.6.c > a g g g l 2.2.2.6.5.5.[ 3 c c k j k ' t / l.3XC.j.j.%.Q y 2 A 8.i.4 w m j < 8 ",
"T B Z B B B N N N C C b.k.j.$.j.j.jX; > 5.E.w.' > a a a a g h l z l c w 5.4 w 3 c c k 3 c 2 7 J.B.B.j.j.Z.< S R G n 7.@.7.e.r.c ",
"y % @ + + + @ + + @ Z Q.^.j.j.j.j.hX; : c 7...[ : > a a i i a i h g g j k 4 w w k w w k 3 3 } J.$.h.d.B.].b.R I J H F y ] ` ` #.",
"$Xd + K D V J L J L &X*X;Xj.B.j.j.jX; , c 9 9 q ; : a a i > i : i a a g 3 4 w w ' w w w 3 : j.U.j.B.d.B.$.:XU G J V V Z Z 0 q | ",
"i.n B F H V G G I L ;X&X;Xx.B.%.B.jX< ; j 4 > 4 ; : a a i > a , > g k c w 4 w 4 ' w w 3 4 X m.C.B.C.V.B.;X&XL P H H B B y y 8 / ",
"o + $ $ $ N N B D L R ;X&XA ^ Q Q L.- ; p 3 < ; : : a i : : > ; > 3 4 w 4 3 w w 3 3 r : > ; K.W * 6 W y C # @ @ + + @ @ + 4.$X3.",
"N V H H H J K N N D L &X&XR } ( ( hX< - : p p > : : : i p , : ; : g w r [ #..X] w e w 4 f . hXW * E < Z y % K N C B F C B 9.i.3.",
"B H J J J P P P U C D I ~.y.) ( ( K.< ; : i p > 1 ; : i > , > ; i ; g w q &..X_ e ..3 q +.0 3X%.W E 0 &X;XI P G J C $ $ N % % y ",
"V V V G G P P P U Y Y J i.$X4.W ( m.< - : : p : p , : i > ; : , > > : 4 .._ ` ..O. .w 2 / 0 hX! Q W 7 &X*XL P D $ N B F H V B B ",
"Z V H H J G P P U L Y R s.,Xu.( W ~ 7 . ; ; p , , - 1 q q 9 e q w e ` q _  .h.h.O.O..._ _ 8 hX! ~ ! e.;X;XI K $ C G G J H T Z B ",
"B V H H J G P P P L Y *X*XA 6 ^ ^ = 7 . a i s h i ; w _ _ 9 e 0 ' ' _ _ ' _ ..$.j. .j.h. . .hXQ ~ u.y.&X;XK N G P P G H H B B B ",
"B V H H H J G G P L Y U *X&XV y ^ = g.. i , : p p - q ` ` _ ` 9 _ ` _ _ { / ] $.j.j.+XI.I.Y.3X! Q ! b.;XN N L P P P J H H F B B ",
"$ $ $ $ $ $ $ $ $ N V N D P t ) W = M.. > p : p p - q ` ` _ _ 9 / _ _ ] $./ #.G.$.j.F.Y.Y.U.m.m.! ~ A $ N L Y I P G J G V B & @ ",
"+ + + +       +   @ + @ # N % W ( 6 L.. 5 p : p p , c ' ] ` ] ` o.' @.' 7.] >.2XV.j.j.B.d.K.L.m.! ~ 7 y R Y L L I L H % @ + + + ",
"+ O   +     +   O + + @   # % W ^ ^ L.; > p p s f , f 7.-.` =.] *.*.*.*.X.7.#.>.-.B.j.G.j.lXm.5X! ! l.^.&XY U L C $     @ +   + ",
"+ @   O     + + + + @ O @ & ) ;.( W K.; p f f 1.f f 2.8.>.*.p.>.oXp.p.>.>.-.p.-.G.G.B.G.n.MXN.N.~ W q b.&XY C #     +   + O M v ",
"2 ` o.1 t r r r ..t + & 0.#.9 W W W VX< f 3.3.u.u.3.u.s.8Xa.oXa.oX8X8X8XoXoX,.6X2XI.G.J.C.HX:.E E = 8 b.L N + + +   + + o < t.m ",
"6 +.+.- { { ..O.=.t t =.-.@.q ( ,.! NX<.u.<X<X1XeX<XeXuXeXwXwXwXwXrXGXwX8X2X6XFXyX6X6X7X,.LX:.:.E 2 8 e N + + @ + o o 9 ) - m m ",
"( | -.` - - w 7.@.&.=.*.=.+.` %.:.n.lX,.<XeXGXGXGXiXuXuXuXuXuXrXrXrXZXrXGXFXyXFXGXFXFXFX7XPX7X>X:.E | ..B + @ + o 0 8 2 2 < b b ",
"Z.I.zXBXZXAXAXAXCXCX9XT.=.Z.4X4XI.F.5X5X5X5X5XzXzXZXbXAXUXUXGXJXJXJXJXIXIXIXPXJXJXUXBXBXBXBXAXbXbXzXzX4XD.] I.U.4X4X4X4XzXzXCXCX",
"` | X.] $.O.k.k.l.Z.x.8 < {  .-.O.k.,.-.-.l.$.Z.V.).V.].F.I..X9X+X9X9X9X9Xj.H.F.I..XG.D.D.D.V.F.D..X+XI.Q 2 k.z.j.$.l.>.h.k.O.j.",
"^ } ( | $.*.$.$.$.-. .^ = | O.$.$.k.l.=.j.B.V.l.V.c.V.V..X]..XF..X.X.X+XF. .6 F..X].F.].F.Z.D.V.A.V.l.V.Q 2 l.l.l.k.k.-.k.l.l.O."
};
