/* XPM */
static char *c6221fb845114b8bcfcf5d4fff98b9ccvELtlVmHFNbdCJ3K[] = {
/* columns rows colors chars-per-pixel */
"64 64 256 2 ",
"   c #030303",
".  c #0B0405",
"X  c #020903",
"o  c #04040B",
"O  c #0B040B",
"+  c #030A0B",
"@  c #0B0A0C",
"#  c #0A0A06",
"$  c #14060B",
"%  c #09120C",
"&  c #13120C",
"*  c #1B110F",
"=  c #040512",
"-  c #0C0513",
";  c #050A13",
":  c #0B0B13",
">  c #0C0C1A",
",  c #08091A",
"<  c #130513",
"1  c #130B14",
"2  c #1A0B14",
"3  c #120D1B",
"4  c #1B0D1B",
"5  c #190517",
"6  c #0D1214",
"7  c #0C131C",
"8  c #081418",
"9  c #131315",
"0  c #13131C",
"q  c #1B131B",
"w  c #17181A",
"e  c #26080C",
"r  c #260817",
"t  c #360917",
"y  c #26141A",
"u  c #361218",
"i  c #35080E",
"p  c #0A0D22",
"a  c #160D24",
"s  c #0C1422",
"d  c #0D1923",
"f  c #0A1828",
"g  c #131323",
"h  c #1D1424",
"j  c #141A24",
"k  c #1B1B23",
"l  c #151C2A",
"z  c #1B1C2B",
"x  c #15142A",
"c  c #0B1933",
"v  c #181D35",
"b  c #270C23",
"n  c #380C25",
"m  c #2A1326",
"M  c #251728",
"N  c #371528",
"B  c #261B35",
"V  c #391936",
"C  c #15222B",
"Z  c #1B242D",
"A  c #1A2428",
"S  c #0C2638",
"D  c #192636",
"F  c #193338",
"G  c #093134",
"H  c #25252A",
"J  c #222B34",
"K  c #262839",
"L  c #39253A",
"P  c #26333B",
"I  c #2A343C",
"U  c #2A3537",
"Y  c #33333C",
"T  c #00221E",
"R  c #470919",
"E  c #570A1A",
"W  c #4E1212",
"Q  c #6D0A1B",
"!  c #470B27",
"~  c #570925",
"^  c #461326",
"/  c #57162B",
"(  c #491636",
")  c #551638",
"_  c #540C38",
"`  c #740824",
"'  c #661536",
"]  c #680E2C",
"[  c #4D213A",
"{  c #6A292E",
"}  c #772F19",
"|  c #334339",
" . c #361C43",
".. c #1A2946",
"X. c #143547",
"o. c #282848",
"O. c #372947",
"+. c #2D3A43",
"@. c #293546",
"#. c #323C45",
"$. c #333E49",
"%. c #3A3A48",
"&. c #382B54",
"*. c #273555",
"=. c #383956",
"-. c #272E57",
";. c #373A65",
":. c #2E3A68",
">. c #171D42",
",. c #581C42",
"<. c #4C1542",
"1. c #6B1A47",
"2. c #771A46",
"3. c #77124D",
"4. c #452746",
"5. c #453848",
"6. c #55384B",
"7. c #592955",
"8. c #473958",
"9. c #573855",
"0. c #50294F",
"q. c #692549",
"w. c #772756",
"e. c #703156",
"r. c #483864",
"t. c #523163",
"y. c #703569",
"u. c #134D51",
"i. c #2E454B",
"p. c #35434C",
"a. c #3A444E",
"s. c #34494D",
"d. c #3B494E",
"f. c #354544",
"g. c #354552",
"h. c #3B4651",
"j. c #364A52",
"k. c #3C4952",
"l. c #3A485B",
"z. c #395358",
"x. c #2A4C58",
"c. c #1B5364",
"v. c #274666",
"b. c #3A4665",
"n. c #395866",
"m. c #294B74",
"M. c #18727B",
"N. c #146B71",
"B. c #28757A",
"V. c #30686D",
"C. c #42444D",
"Z. c #414453",
"A. c #414B55",
"S. c #484A59",
"D. c #544559",
"F. c #49555D",
"G. c #525D5F",
"H. c #495463",
"J. c #555968",
"K. c #464974",
"L. c #564977",
"P. c #51496B",
"I. c #6D4E6F",
"U. c #53626C",
"Y. c #726068",
"T. c #8C051B",
"R. c #880925",
"E. c #970727",
"W. c #8E1530",
"Q. c #A40728",
"!. c #B30F31",
"~. c #89263A",
"^. c #B23033",
"/. c #CE0A35",
"(. c #D02F2E",
"). c #E53937",
"_. c #BA453C",
"`. c #901A50",
"'. c #AB1855",
"]. c #852459",
"[. c #942657",
"{. c #AB2E54",
"}. c #B1196E",
"|. c #862C66",
" X c #9C2767",
".X c #94346D",
"XX c #B12F72",
"oX c #8B1E63",
"OX c #D22C4C",
"+X c #CF2B78",
"@X c #E52E7B",
"#X c #D61550",
"$X c #8A4E72",
"%X c #AA4D6B",
"&X c #9E585F",
"*X c #D14F4D",
"=X c #CF6A78",
"-X c #EA6B75",
";X c #D85564",
":X c #C5702F",
">X c #13867D",
",X c #CB8E4B",
"<X c #295686",
"1X c #1B7885",
"2X c #327B86",
"3X c #277AAA",
"4X c #4B5885",
"5X c #555885",
"6X c #535590",
"7X c #6B5C8E",
"8X c #60668A",
"9X c #B53483",
"0X c #883F84",
"qX c #EE1C8B",
"wX c #C83789",
"eX c #D73689",
"rX c #D73897",
"tX c #D62B8D",
"yX c #E52987",
"uX c #E43793",
"iX c #ED2E93",
"pX c #E63DA3",
"aX c #935485",
"sX c #AD4D89",
"dX c #B26795",
"fX c #D14E97",
"gX c #EC4997",
"hX c #EA7C86",
"jX c #D155A1",
"kX c #EB51A7",
"lX c #EE73A7",
"zX c #CD7D9E",
"xX c #188D93",
"cX c #2F8B8E",
"vX c #1C95A9",
"bX c #11AEB0",
"nX c #2CA9B4",
"mX c #2780B8",
"MX c #15C2BE",
"NX c #0DBDC4",
"BX c #16CDD1",
"VX c #04FBFB",
"CX c #0BEDEC",
"ZX c #1BDDDB",
"AX c #5C8490",
"SX c #B39497",
"DX c #BB97A3",
"FX c #A19699",
"GX c #D19EAC",
"HX c #F4ADB1",
"JX c #DD8C93",
"KX c #F1ACC8",
"LX c #F1D3D2",
"PX c #FCF5F5",
"IX c #F5DEE4",
"UX c #F2CEB8",
/* pixels */
"A.k.k.a.p.a.a.h.p.a.h.p.h.p.a.p.a.k.h.p.k.+.#.p.g.f.J Z a.H.n.4X4XP.m eXsXI.l.p.p.a.a.p.a.p.P F h.p.p.a.p.J a.a.a.a.a.h.p.a.a.p.",
"k.p.p.a.h.h.p.p.p.a.h.k.p.a.p.h.h.p.k.k.p.+.7 8 h 7 6 d n.H.5X4X5X@.1 y .XfX$Xh.k.a.p.p.a.p.h K p.k.a.p.a.p.p.a.p.p.k.a.k.a.p.a.",
"$.+.+.p.a.a.p.p.h.p.a.a.p.a.P h.p.p.k.p.$.7 +.U.G.F.+.u.v.5X6X4X4X=.3 . ; 9Xy.sXh.h.p.g.h.p.j j.p.a.a.p.p.p.h.a.p.k.p.p.p.a.a.p.",
"h.p.a.k.a.a.a.k.h.a.k.p.p.k.h.p.a.k.C C g l p.p.s.j.D j K.7XK.4X4X&.7 - + ( fXaXfXZ.p.g.p.l p.p.a.h.p.k.J p.a.g.h.p.#.A.k.p.a.k.",
"h.a.h.a.p.p.p.p.a.p.a.$.k.a.#.k.k.h.7 > C a.k.a.l.B.c.0 B 8.L.4X4XO.+ q g > |.XX|.h.h.p.#.= $.p.p.k.h.p.8 a.k.g.h.I a.p.h.a.p.p.",
"a.p.a.p.p.k.h.a.a.k.a.k.p.p.k.p.p.J : ; P p.p.k.V.MXS 7 , F v.*.;.J O : : 2 y ]. XsXI.h.g.I g p.k.$.h.p.= k +.g.Z Z h.a.h.a.h.a.",
"h.p.a.a.a.h.a.p.a.p.p.k.a.a.p.h.+.7 8 U J h.p.k.n.BXX.D S D o.g.g.7 = r   X e  XeXXXD.p.p.a.- I p.a.h.J 0 H 0 C h.#.+.p.h.p.p.h.",
"a.p.h.h.p.p.a.k.h.a.a.a.p.a.k.+.7 Z F.F.#.a.+.g.B.BXj f C v.x.b.=.z 4 o r ^ ].`. XXXI.h.j.a.0 k.P P p.7 Y.FXU h.p.A.F.p.a.a.p.a.",
"a.a.a.a.a.a.p.h.a.a.g.a.p.a.I 7 J z.z.H.h.#.P v.BXBXD F z B O.$.AXC.E Q . b 9 }.tXiXaXk.5.p.J P k.#.7 j S.U.S.p.a.p.a.a.a.p.h.p.",
"p.p.#.p.$.$.P #.k.#.+.p.#.J j j F.F.H.k.p.C.F.H.B.MX..X.D o.H o.8.;.  y k : + +XyXuXI.s.p.i.j a.p.F.F.j J.U.p.h.p.h.a.p.h.a.a.h.",
"k.p.a.p.J.p.D d d p.A.+.j o j p.a.k.+.a.d.p.k.s.n.vXZ g >.O.8.J.b.7X7.- O : . tXyXjXh.s.a.7 C.p.p.h.p.8 p.k.p.p.+.p.k.k.a.p.a.p.",
"p.k.p.p.h.h.p.h.h.p.p.a.J Z F.k.h.a.h.h.h.p.g.Z.n.M.D m V &.8.L.L.O.O o : = O +XyXaXh.a.a.Z p.j.p.p.p.; I p.p.h.A.a.a.a.a.a.k.h.",
"h.h.k.p.a.p.k.a.p.p.a.p.P 7 a.k.=.f.d.h.p.a.k.p.z.V.=.[.3.7.7.r.P.8.9 - O y '.+XiX$Xh.a.a.p.+.p.a.k.h.7 Z p.h.a.k.k.a.p.k.p.p.p.",
"k.a.p.k.a.p.a.p.+.k.p.a.P 7 p.+.Z.f.f.h.p.a.Z.k.k.cXt.HXgX}.e.y.L.8.: > b 3.gXLXiXI.k.p.a.F j a.a.p.p.7 $.a.h.a.a.a.h.p.a.a.h.a.",
"a.a.$.a.a.h.h.h.+.h.h.a.C Z a.j.$.l.b.$.p.s.s.s.p.cXv.+XHXlXtX|.y.9.< ! '.lXHXiXqXI.f.h.p.z., I k.p.a.l C h.a.p.a.p.a.p.a.h.p.J ",
"+.h.h.a.h.p.a.a.#.+.+.l ; a.p.k.h.ZXxXp.j.h.g.a.h.V.N.n '.gXLXqXy.O.< [.UXhXqXqXiXD.s.p.a.%.Z j p.k.p.D Z +.p.I I #.+.Z C j 7 ; ",
"J a.p.a.a.h.p.a.+.o A ; P k.a.p.J ZXM.cXa.a.g.h.g.z.xX4 0. XuXlXy.B e =X%X! '.qXgXk.s.p.p.Z.+.H a.p.p.P ; 0 : ; o > : : ; o Z U ",
"C a.A.a.a.p.h.7 o = o P A.p.a.p.Y.BXv.bXx.h.a.f.%.k.bXM.4.t.y.sXI.B M ~ 2 m !.yXkXa.a.p.p.a.+.j Z.F s j U.k o I F.h.I 8 a.S.U.p.",
"D k.h.D d J I F.F.P ; p.a.a.s.a.@.CXmX*.U.b.$.k.d.i.N.bXx K r.t.I.h 5 h 4 2 ^.yXfXa.a.h.a.s.> sXe.3 , 7 0 #.S.F.h.k.H.k.k.p.h.k.",
"k.k.k.k.J.p.p.p.h.k.> p.k.#.+.p.l CXCXvX2Xn.p.z.p.z.B.BXd M r.Z L.v > g M ^ #X@X6.=.g.P j Z.g rX$XJ.F.j.C.k.A.h.h.g.h.p.p.k.h.p.",
"k.p.a.a.a.a.p.h.p.d.k 0 Z l 7 P T VXVX3X*. Xl.f.@.+ N vXc.3 h : =.D.$ + ; ' @Xw.R .XO.U l.H.fXuXaXg.a.a.a.g.k.p.p.a.p.p.k.p.p.k.",
"p.h.a.$.a.h.$.p.k.p.Z ; I F.a.s G VXVX3X<XoX@.+.+.*.% X.NXf 3 p c.H u @ = ! ' m . wXl.f.h.I.N eXkXk.a.a.p.h.j.p.a.k.p.a.p.a.p.p.",
"p.a.a.k.k.p.k.h.p.a.U 7 p.k.k.+.N.VXVX3Xm.t. X7 F F v.6 F xX@ o vXM ^   o u i % q.7.Z.p.F.|.: wXuXI.i.s.p.g.h.h.h.p.a.a.a.p.k.a.",
"h.a.p.k.p.a.a.p.h.a.I 7 p.j.p.p.VXBXVX<Xm.-.}.X.8 V.-.8.2 + N y c.5 R 9 R . X r .X( 5.h.I.h k 4.rXXXS.d.h.g.a.p.p.k.h.p.h.h.p.h.",
"J p.p.k.p.p.p.$.P p.a.0 p.f.h.nXCX<XmXm.v.*.[.> p.: j *.e.$ * w F R.~ ^ % #   |.XX].1.9.( 0 h I r wXjXh.a.s.g.a.a.p.h.k.p.k.p.h.",
"h.p.p.a.h.p.p.p.$.#.p.3 a.j.vXu.<XxXm.:.-..._ _ X o 3 - ..y.! % N /.E     < ) N uXm b oXr : = = V XXuXkXI.l.a.p.a.k.p.p.Z.a.s.p.",
"h.p.k.p.a.h.h.p.k.k.k.J x.1X@.:.:.v.v.*.o.v _ 1.# 8 j p A l ;.8.W.!.~ . q n q 2.|.= ( w.M O o K D K q.rXuXfXS.Z.h.j.h.a.h.a.p.h.",
"p.h.a.h.a.p.g.d.s.g.K cXxXb.;.=.=.*.v.-.o.o.( ) & - x j o.=.7 v E.Q.] y 1 : 0 XXb + `.q a : 7 K o.o.o.O.eXuXgXI.i.p.h.h.p.p.p.a.",
"s.h.p.h.p.a.V.k.a.j.xXJ ;.;.;.-.-.&.X.@.*.S ,.r   > g 0 : K l.K E.E.~ 1 w ; V B 9 / ( ; = s o.v o.o.=.=.B eXuXkXP.h.p.p.p.h.j.p.",
"a.h.a.g.f.k.cXs.%.B.p b.b.=.r.4.-.o.D v c.s `.O 2 O 0 7 o ; g K R.Q.E 0 a V V + u u @ O ! v D v K @.&.r.;. .eXuXdXg.a.d.s.Z.j.a.",
"d.g.h.l.a.j.vXp.l.>X@.;.;.r.e.o.D v v a > ; ' r r R . - , = 1 ; T.E.~ 2 V 4 O e   = o n g v z v D L O.=.K.8.+XeXkXD.p.a.s.h.p.p.",
"p.l.p.g.a.n.vXk.n.S K.r.t..X*.K a l l g > : N : ) 3 ! o q 0 ; O R.E.] O + 6 3 $     3 k S x v o.o.O.3.8.P.P.L.wXgXaXp.s.a.h.j.p.",
"C.=.k.p.j.n.CXn.2XK b.;.XX&.o.A > j w q - = 3 ( 0 ( 2   9 7 = O R.R.~ # o @ & @     8 M j v c o.o.K W.&X|.P.5X9XuXjXh.p.p.p.a.g.",
"Z +.f.P a.nXCXN.X.K.;.8.XXo.Z F 0 k = = : 0 g r . g N y     7 q Q E.~ 9 4 @     4 9 + 5 - j z v K 9.e.`.t.L.8X$XrXuXsXS.h.p.a.a.",
"; + : ; l NXBXu.K :.*..Xq.v g C 1 @ o = - ; D + u = : b b   # < R.E.` < N t     2 O #   + @ ; c >.o.*.9.8.5X6X7XXXyXXXjXh.s.p.s.",
"j U J L C bXbXxXc.@.4.V z h - = o o o o j - o O e - ; O. .3   O Q.E.R.$ r o   /   + -   X . o 3 K o.-.;.P.5X5XL..XyXeXaX=.h.s.a.",
"J.U.J.G.J.cXN.f 0 u.+.1 a d q @   o 9 % 5 o + n y + ; ..-.B o # !.Q.~..   @ u *     ( N &   o # K K o.b.K.K.K.=.( `. X$Xh.a.a.a.",
"H.k.p.d.V.c.X.D D f g X.@ % 0 % o # 2 0 $ t 2 ] ] 1 : >.:.-.D $ (.Q.^.. u ! / @ o O y 9 + e $ > @ K &.=.;.=.0 # + XX@X.XdXI p.h.",
"p.k.a.s.l.cX>XS u.bXu.j q - # < 0 y X   & 9 ' .   w 0 ........r (.!.^.y ^ @   / <.O.  X   & Q..   b 0 M $ e e 9 6 N eXgXD.#.k.h.",
"f.a.h.h.h.xXS xXO o X u.@ # R E.$   X ` $ R t   o   o x a v ..r (.Q.(.e t 2 e   - + O o   : . /.R.Q E.i X   o + : - +X$Xa.s.d.g.",
"a.p.a.p.cXu.G s ; 7 X     t e R ` Q.R.. 1 e E o O < n N ^ 3 > i (.!.(.E . 5.< '   <.% X o L | < i 5 o       = # ; h  XeXS.Z.h.p.",
"p.l.j.n.1XM.M.u.V.q.b X o m ' i X   9 q b o t u N ' r 1 / k ; R ).!.(.e q 4.9 9 V b g 0 % =.a.9 W t   . y 2.; - 1 m @XwXkXF.a.j.",
"s.s.s.h.z.vXj a > g 1.2.b `.O : @ @ $ X N - @ ! ^ @ 2 ] r r y E *X!.OXt H 1 # X 0 % + + o &.a.I I `.` R 4 6 : 6 9 0 +XXX.Xl.#.a.",
"h.a.a.%.cXG j h 6 : $ 0 XXR   8 h q   O V 9 & e . u / @   o 0 E -X!.(.R w + q - l 8 .   O z f.k.h.p..X! : O n V g b @X.XP I P a.",
"h.Z.i.z.1XG O.V ) ! 4 : `.} O B z o   L , , f p r ~ $   X o . E hXOX*Xi   q o p , = o +   : k.C.p.p.D.oX@ a r b ! 2.. 7.M ; 6 p ",
"d.=.d.j.M.G xXO o b yX' R *X&.=.O.s [ e $ s c f o   e X   o t Q HX_.;XR r - 3 = o o   X # @ 2.h.A.C.s.D.w.W.e     X : < 9XJ.l.J.",
"p.k.k.g.Z.MX; = # 9 z ( #XOXy.N $ +  XN 0 c v C l o   2 w m N ` HX;X-X] r 7 k k     9 6 q {.E e.a.a.5.5.a.,Xe   # N `.XXb aXk.p.",
"h.p.a.d.z.u.& : > B K L.aX[.1.tXdX5.m a v ..S f f ; 9 + $ ( 7 W.LX=X-XE 6 0 ; o 6 9 O - t W.l.%.h.h.XXB * (.' '.( r > V dXs.a.h.",
"h.g.h.l.c.F y y + # @.r.Y ,.uXzXk  X|.c.l ..s s c : w : n 2 9.~.LX=XhXE 0 @   # 9 9 o = r _.V.fXS.h.sX7./ W.( h > - + M kXS.p.h.",
"a.s.2XZ o = o ^ o n `.'.$X5.aXu . 9.nXX.c S s f , X $ 1 # L   W.LXSXJXE O .     o .   X E ^.xXdXl.p.S.e.L 4 - O #   n o w.I.a.p.",
"z.cXM.+ : : - : @ : n '.'.e.< X   c.nXl c ..c f +   X o X O o !.IXJXhXE $ @   +     o { Q : *.$Xs.s.l.8._ _     X $ (   y |.I.k.",
"V.CX< o.k q X ; @ q q. X/ q.j : X s ZXj v S c c 0 O   . q & < '.KXSXJXQ < @ 9 6     9 } : p - 6.$.h.g.KXiXqX:   o j M O 1 n fXD.",
"2XNXx j l.^ u h m M b m q ' H X k & BXC x D D s , m 6.%   # 9 '.KXDXLX` q $ o   : 9 W e , M y Z.#.f.U FXrX1.M 6 < o - q 0 : uXkX",
"B.xXl 7 ; f Z h > n ~ n |..XX.u.F 6 X.v.a f c f `.D.w : X   q '.PXDXHX] q O   X 9 6 X   O i q.j.Z g . FXIX9.7.m 9     9 3 : XXkX",
"V.M.8 > + = = n r 3 k L 9XkXwXB.c.# S u.m O   ( O o   o     . %XPXDXIX` $ . o   E < .   u P C.g.+.4 GXjXdX.X( < o O o # + o eXpX",
"j.xX6 , : 6 . _ 7 q l x B rXkXwXU.u.8 N.3 O e N @ X     0 6 # SXPXDXPXe.5 + @ u   R u 8 w a.C.h.Y GX,.$ 2 M z B <.V z X o N [ 9X",
"a.V.V.7 6 2 t 5 A J z l B |.wXrXrX8Xi.q 2 $ n 9 & o   @ q 9 # DXPXDXPX$X$ 2 9 r . # & w J a.5.8.zXe.$ O l D j x j 7.z o o 6 w ,.",
"h.i.V.s o   ) H p.+.s x B B V |.rXrXsX2 r & : X   E.] Q ` ` ` =XzX%X=X{.` Q E e ` E @ o U 7.9X) b < 0 Z j x D J p.D.4.Z Z 1 2 6.",
"p.p.p.V.G 7 ' K h.g.#.K A l M B V |./  X[.w.L     $ !.!././.#XOX%XKXGXR ` Q.Q !.T.& o 4 ].}.3.h a M K z > l D p.p.S.y.*.p.M 5.C.",
"g.k.s.h.g.u._ p.a.p.j.k.j 3 h M B V e  X+XyXgXGX6.*   E W.%XlX%XtX}.XX3   . $ e   X y XX}.M x 3 o B 3 > x j $.l.a.$.y.-.h.C.h.p.",
"h.s.C.A.Z.V.4.j.A.a.p.$.3 0 M / 5 :Xq y 4 b u ].iX+Xh w. XeXtXwX' N ( n 2 N 9 : o .XyX].V v 3 f.j l l j $.h.+.P h.S.L $.a.h.g.a.",
"p.p.h.p.h.z.%.6.h.g.a.0 I Z M ^ 9 W 0 g @ # o 4 4 '.1 I.]..Xq.9.q M M   X # 1 0 y  X,.L B x j p.j U s.p.p.a.P I g.a.K p.p.h.$.k.",
"p.p.p.h.p.p.Z.9.h.g.p.> k.i.s.H y 3 # o - 9 4   X ~.J +.#.Y O.L k M K [ 7 & # $ 6.6.4.#.#.g.k.p.h U h.h.a.p.F.a.k.p.p.d.p.h.p.h.",
"C.s.A.p.p.p.a.p.p.d.C j $.h.Z.a.P w   =   # o o   ) ; %.h.h.I k X @ o O + # X $ U K 4.I Z.k.a.h.8 +.h.a.h.a.a.h.a.h.h.g.h.p.s.g."
};
