/* XPM */
static char *_c6764e5df6c4ce7cee0b1daef1103f39sTo81lOdQXUe2wT[] = {
/* columns rows colors chars-per-pixel */
"64 64 253 2 ",
"   c #0A0A0E",
".  c #050C0D",
"X  c #060B16",
"o  c #0A0B14",
"O  c #050C1C",
"+  c #0B0D1B",
"@  c #110E1C",
"#  c #0C111D",
"$  c #06111A",
"%  c #11111E",
"&  c #050E23",
"*  c #0B0E23",
"=  c #040E2C",
"-  c #0B0E2A",
";  c #120D26",
":  c #041225",
">  c #0B1224",
",  c #04132C",
"<  c #0B132B",
"1  c #09182C",
"2  c #111223",
"3  c #11142B",
"4  c #0A0E36",
"5  c #041433",
"6  c #0B1333",
"7  c #031A34",
"8  c #0B1A33",
"9  c #03153B",
"0  c #0B153B",
"q  c #031A3B",
"w  c #0B1B3C",
"e  c #13123C",
"r  c #121A3D",
"t  c #191637",
"y  c #190E39",
"u  c #251A3B",
"i  c #341D3D",
"p  c #05213D",
"a  c #182136",
"s  c #031C44",
"d  c #0C1B43",
"f  c #041C4B",
"g  c #0B1B4B",
"h  c #081545",
"j  c #131B44",
"k  c #1B1C44",
"l  c #141C4B",
"z  c #181748",
"x  c #0C1B53",
"c  c #081B57",
"v  c #141C53",
"b  c #1B1D54",
"n  c #131D5B",
"m  c #1B1C5B",
"M  c #171554",
"N  c #130E4B",
"B  c #261B4A",
"V  c #321E48",
"C  c #281B58",
"Z  c #361C5A",
"A  c #210F47",
"S  c #0B2344",
"D  c #03234C",
"F  c #0A234B",
"G  c #052748",
"H  c #15254A",
"J  c #032453",
"K  c #0B2353",
"L  c #032B55",
"P  c #03245B",
"I  c #0B235C",
"U  c #032B5C",
"Y  c #0C2B58",
"T  c #132354",
"R  c #14225B",
"E  c #18265A",
"W  c #083459",
"Q  c #143459",
"!  c #0C3249",
"~  c #292549",
"^  c #282458",
"/  c #33235B",
"(  c #382758",
")  c #3A335E",
"_  c #2F2A53",
"`  c #0B1B65",
"'  c #171D65",
"]  c #191E76",
"[  c #261B66",
"{  c #361B79",
"}  c #2D1B6C",
"|  c #042C64",
" . c #0B2C63",
".. c #042C6C",
"X. c #0B2D6C",
"o. c #082467",
"O. c #152B6C",
"+. c #182667",
"@. c #033364",
"#. c #0A3264",
"$. c #0B336B",
"%. c #08386A",
"&. c #15376A",
"*. c #0B2C74",
"=. c #182876",
"-. c #053573",
";. c #0B3373",
":. c #0C3B73",
">. c #0C3C7B",
",. c #073778",
"<. c #163778",
"1. c #262768",
"2. c #362767",
"3. c #393469",
"4. c #272877",
"5. c #362777",
"6. c #273578",
"7. c #383578",
"8. c #273464",
"9. c #472B55",
"0. c #4A1C68",
"q. c #452968",
"w. c #56266A",
"e. c #463668",
"r. c #57356A",
"t. c #472777",
"y. c #582878",
"u. c #49397A",
"i. c #583975",
"p. c #662A76",
"a. c #6A3779",
"s. c #77377A",
"d. c #6D2E71",
"f. c #0B437C",
"g. c #074479",
"h. c #154579",
"j. c #0D4C74",
"k. c #3C4778",
"l. c #234B79",
"z. c #454A78",
"x. c #5A4378",
"c. c #4F4A74",
"v. c #76447B",
"b. c #664578",
"n. c #863875",
"m. c #914B7B",
"M. c #271C84",
"N. c #371989",
"B. c #3E1C99",
"V. c #182884",
"C. c #0B3B85",
"Z. c #173A85",
"A. c #153796",
"S. c #272686",
"D. c #372585",
"F. c #263787",
"G. c #363784",
"H. c #2F2C97",
"J. c #2F33A9",
"K. c #1C2C92",
"L. c #411D9B",
"P. c #4A2887",
"I. c #492597",
"U. c #53338C",
"Y. c #6F368A",
"T. c #4C2CA9",
"R. c #6025A5",
"E. c #0B4483",
"W. c #094888",
"Q. c #164888",
"!. c #09568A",
"~. c #15558A",
"^. c #0B4995",
"/. c #164A97",
"(. c #095997",
"). c #165997",
"_. c #264686",
"`. c #285897",
"'. c #304F92",
"]. c #0A639A",
"[. c #166599",
"{. c #166F99",
"}. c #236699",
"|. c #346599",
" X c #095BA6",
".X c #135AA4",
"XX c #1750AF",
"oX c #2D50AC",
"OX c #0967A6",
"+X c #1568A8",
"@X c #0A74AA",
"#X c #1878A9",
"$X c #096AB2",
"%X c #136BB6",
"&X c #0A76B7",
"*X c #1678B6",
"=X c #2477A7",
"-X c #2777B9",
";X c #326CAC",
":X c #4F4D87",
">X c #734E8A",
",X c #4E4AB9",
"<X c #4872B6",
"1X c #6D6B99",
"2X c #633CCA",
"3X c #3754C6",
"4X c #2F6EC6",
"5X c #177BC5",
"6X c #5451C9",
"7X c #4C77CE",
"8X c #8C3A85",
"9X c #8A4282",
"0X c #954885",
"qX c #925792",
"wX c #AB558F",
"eX c #956699",
"rX c #8E6998",
"tX c #AF6996",
"yX c #9973A8",
"uX c #B370A7",
"iX c #9B52AF",
"pX c #C670A3",
"aX c #BD5EC2",
"sX c #1687BA",
"dX c #138DB9",
"fX c #268BB9",
"gX c #3087B5",
"hX c #6586AD",
"jX c #0E89C6",
"kX c #188AC7",
"lX c #0C95C7",
"zX c #1899C8",
"xX c #1798D3",
"cX c #1495D4",
"vX c #2F8CCC",
"bX c #18A6D6",
"nX c #16B0D5",
"mX c #2DA9D5",
"MX c #2EACE3",
"NX c #4783C3",
"BX c #4F8DD2",
"VX c #6AA1D4",
"CX c #23CAE7",
"ZX c #5EC1E8",
"AX c #B286B7",
"SX c #9C91B4",
"DX c #D48BBA",
"FX c #9D98C1",
"GX c #A8A4CB",
"HX c #CCA1C6",
"JX c #9AC9DC",
"KX c #DECAE3",
"LX c #E8D0E3",
/* pixels */
"CXnXzXbXcXcXxXmXmX'.*X&XOXOXOX$X$XOX^.(.dX$X!.!.%.$.(.(.^.C.-...c P #.P ..c P D f f f g M x c M b b m C j 1.2.p.n.9X9Xs.qXqXwXtX",
"CXnXzXlXjXkXvXBX<X'.*X&X&X&X$XOXOX.Xg.OX&X!.^.(.].W. X X^.^.C.....o.c o.-...x J P c P n n I c n m m C Z z q.w.p.n.m.9Xs.wXwXtXtX",
"CXdXsXdXkXsXgXBX<X;X-X%X+X$X X X!.!.D ].@X@./..X/.C.%XXXXX/.A.V.,.' n o.| X.I U P P I R I n m n n C C Z B Z Z w.w.s.v.s.0XwXwXpX",
"mXnXnXlXkXkXgXNXhX<X=X@X(.!.:.j.(.OX].E.).@X^.^.^./.7X3XoXJ.A.V.V.=.' f...,.o.o.I n n m m m C C Z C x C w.w.w.p.s.9Xv.wXpXDXDXe.",
"nXxXxXcXjXjXkX-X-X-X@X].(.(.).].E.g.W.E.Q.h.vX4X4X7XBX7XBX7X;XoXoX/.] >.W.>.=.=.S.S.S.D.N.D.N.D.0.[ [ 2.w.p.p.d.d.n.0XwXuXDXyXeX",
"bXxXlXjXjX&X*X*X*X%XOX(..XOX+X].g.E.W.W.W.C.4X3X3X6X2X2X,XJ.J.H.K.V.V.' W.,.=.4.S.S.H.B.I.I.I.I.0.' w.y.w.p.p.d.8X8X8XqXtXDXyXDX",
"bXjXkXkXjX&X5X&X&X%XOX(.].].[.).g.E.f.C./.`.4X4X6X,X2XT.,XT.J.H.V.] V.=.o.,.*.S.S.B.I.T.R.R.R.I.} ` 0.y.w.p.p.d.d.s.0XwXtXuX>XyX",
"gX{.#X{.{.[.[.~.j.f.%.~.(.f.W.!.(.!.!.@X+X=X.XoX3X,X,X6X,XB.oXNX;XXXQ.Q.>.<.=.] ] M.N.N.N.N.N.] ] =.2.w.w.Z 0.p.8Xv.v.r.qXAXLXHX",
"fX=X#X*X[.).].!.W g.OX.X).!.f.sX#XE.j.).OX+X+X.X;X4X3X,XT.T.<X4XNXZ.,.<.Z.=.V.S.H.H.D.B.L.B.{ D.M.[ [ 2.0.q.w.s.0XwXuX3.0X0X0XuX",
"vX=XOXOX(.(.!.!.#.OXOX).(.OXh.#X).).@.OXOX$XOXZ.XX3XJ.J.T.B.NXVX`.C.C.Z.*.=.=.S.H.D.} B.I.I.{ P.D.{ [ 1.v w.w.s.9XwXAXi.9XeXuXuX",
"=Xh.).OX[.).).!.>.%X+X].[.&Xg.#X+X@Xg.@X&XsX&X>.XXXXJ.J.J.K.BX'.F.C.,.o...*.] ] M.4.[ B.I.I.t.I.t.P.y.w.M a.w.w.a.9XqXeXtXtXuXAX",
"-XsXkX+X#X].E.f.h.%.~.{.dXbXnXzXfXsX=X#X#X].[.#.....-.-.,./.-XoXV.*.).:.c N ` ` ] D.5.N.{ D.t.t.t.5.y.p.w.0.C m C e.HXKXLXKX1X:X",
"MXnXzXvXsXdX*X-X+X#X*X#XzXbXbXnXnXbXbXbXbXlX&X~.OX+X[.].).[.}.).).Q.W.O.>.F.>.Z.G.G.G.U.U.P.U.U.2.P.t.i.Y.a.a.7.yXyXFXFXFXyXyXrX",
"cXcXkXkX+XOXOX].).OX@X~.sXzXlXzXzXlXlXdXdX&XOX%.+XE.E.W.E.>.>.,.,.<.*.' =.=.<.<.F.4.5.5.D.P.P.P.Z 5.t.q.w.w.s.+.:X>XrXeXqXeXqXi.",
"xXvXkX5X*X%X%XOX].$X$X#X*XdXzXdXxXlXkXjX&X@XOX:.g.!.E.E.-.,.-...| &.+.O.Z.<.F.6.<.6.4.5.5.5.t.t.Z 4.y.d.p.s.Y.+.7.>Xs.r.q.( b.s.",
"`._.~.}.}.+X`.).Q.!.#X=X{.#XzXjXdXzXkXzXsX[.}.g.f.g.P K K G h s g g U h.<.=.+.` O.6.6.3.3.2.2.3.e.7.u.i.>X>XY.5.q.( 9.k ( V i i ",
"/.Z.BXgX-X).W.E.=XmX>.o.#.E.sX+XfX*X*XkX#X{.NXgXfXvXfX@XsX/.Q.!.>.:.<.).<._.'.z Q.Z.6.G.4.5.G.U.U.U.U.i.w.5.>XqXHXtXAXc.tXm.eXwX",
"mXoXvX7X;X/.^.j.~.=X~.).^.=X{.gXmXdXkX].sX~.OX(.~.(.).g.~.Q.f.$.E Q. .@.$.Q.<.t Z.F.F.6.6.7.H.U.Y.Y.Y.i.Z t.t.a.0Xm.0Xv x.rXrX>X",
"Q.ZX<X7X;X`.Q.f.kX).~.Q.F.|.).ZXkXgXO.T U `.OX)..X+X$.W L &.$.&.T [.| Y +.c R N <.6.<.F.6.r G.G.2.t.5.2.A w.r.a.m.tXn.) 1XrX>Xi.",
"JXJXJX<X6.| &.h.j.E D T +.O.'.gXh. .Y h.l.}.!.;.g J R %.W.).f.#.&.h.Y Q :.`.l.k.:Xc.8.O.k.1X:X:X2.C 2.C b 2.^ ( ( ) 2.b / e.e.) ",
"4XBXvXNXvXmX=X[.).X.U  .<.'.|.}.&.#.[._.~.`.Q.Q.}.'.|.;X'.'.G.h.h.f.Q.Q.Q.,.:.6.=.+.n _.F.G.G.u.i.3.P.7.:X3.z.2.u.e.e.u.b.SXb.x.",
"4XvXvXvX}.!.h.E.>...#.$.-.-.$. .| | Q.#.$.%.<.>.<.<.<._.'._.6._.Q.:.:.%.%.Q.<.E E +.v <.=.+.1.2.B m 2.[ } C C Z C Z C Z C / yXq.",
"4X4XvX-X<.~.#.E.:.f.;.*.;.@.U L P c &.o.L O. .O.&.6.<.'.'.'.1.'._.:.>.>.&.<.O.+.R R g =.n v v M z n M C C ^ ^ C B Z Z V V C w.rX",
"gX;X_.~.VX;XW d F W Y Y W j.&.f.E.$.K M d x M O.Q._.`.<XgX;X|.Q.<.l.[.}.`.O.E 1.5.7.:Xk.q.[ ' / ^ R B k l B ~ _ ) _ ( / e.x.GXSX",
"&X+X%X$X].$X X#.!.^.^.>.g.h.!.).W.-.Q.oXO.^.kX.X/./.Q.f.f.>.Q.Q.f.!././.f.C.6.<.G.G.7.G.4.2.1.5.2.Z w.Z C 2./ ( q.q.9.( q.v.>Xv.",
"@X.XOX+XOX.X!.%.W.W.g.@.P Y F c f P c ` h.^.~.:.Q.Z.<.X.&.f.Q.W.E.)./.Q.Q.Z.Z.Z.=.=.=.4.S.6 +.1.[ / Z ( q.q.2.u.x.q.r.( q.b.b.v.",
"g.W g.^.W.^.(.W W.E.E.-.D 9 = 4 4 9 5 0 = s 9 9 K K J  .&.h.:.%.%.f.&.&.O.O.=.=.O.O.+.=.' 4 M ' b C C b z Z / 1./ / V ( e.( q.r.",
"&.&.Q w W j.!.~.f.&.G = K P f.E.>.o.E.h.6.4.Q  .D D D D D P  .&.h.h.&.&.^ ;.O.&.+.1.1.1.2.2./ C B B 2.e.x.>X>X>Xz.:Xc.c.x.e.V e ",
"L L L W 5 j.W.C.g.;.#.s (.(.:.X.Y w <.o.c c g d X.X.o.o.X.$.;.$.#.X.#.#.T /.F.6.4.4.1.+.1.4.^ B / / 5.t.u.U.Y.U.3.i.x.b.a.>X9.B ",
":.g.%.S 9 E.E.g.:.@.| #.W.-.o.c x 6 O.` ` ` c g ,.;.;.*...| W Q #.o.| L d W.O.I R +.j 1.^ ^ ^ / ~ C } 2.t.y.a.2.^ q.) 3./ ( i e ",
"L @.W G Y !.:.@.#.L g U #.g.o.x o.R =.+.4.n o.o.~.f.-.$.$.#.%.%.Y f f f N ` z g l l j ' 2.1./ 2.^ ^ ^ ^ Z 2.q.2.8.e.3.~ r 0 i ( ",
"^.-.@.&.!.(.~.:.@.$X%X&X(.C.x o.A.A.F.J.H.<.E.f.Q.W.W.)..X.X).~.#Xj.P P *.+.I n n R ' T m 1.2.e.e.9.e.( V B V 3.2.2.C e.~ V r.>X",
"E.g.,.$.9 7 7 @.(.^.W.-.q F x =.=.=.=.V.] &./.E.E.^.^.^././.Q.Z.Y T K X.I R E  .+.R n +.v b b z Z ( ( Z Z / / / ^ ^ ^ ~ ~ V V q.",
"^.g.>.q 9 q w , f.,.@.g s s g ' S.M.S.S.M.o.W.W.C.W.Q.E.W.E.>.-.T E  .;.<.O.I n R E R +.' m m h z / / 2.Z 2.3.2.1.^ b B u 9.V _ ",
"D Y W W f 9 f j.W G w s H  .<.*.' ] F.F.'.h.Q.&.0 0 6 6 0 6 , 5 5 S Q &.H D K T E v T w d d 5 0 0 6 r k ) e.e.3./ C B A _ e.x.( ",
"W.g.$.%.(.! ;.@.X.P K f.#.<.<.&.Y I <.*.X.| o., s g s q 9 q q S J I D s 0 l T l d v H w g g d g d T 8.k.3.3.c.:Xc.e.B t u u t u ",
"W.>.,.%.-.s -. .F J s w , < < 0 g f O.*.U  .T : q s s s s q 5 g F K K T j +.+.R T T H d f s s K g T j ^ k z z l k r r k t t t r ",
"W $.@.| f 5 G S c s 8 , * = < , h c K I U L q 9 q s s s s s 9 f J Y K T b +.+.O.O.+.T s h g g K g h z z e k k k t t t u t u t u ",
"[.@.S J $.6 j.J 7 9 f :.S D K &.&._.h.&.&.Y s o.%.h._.&.&.&.h.Q.}.|.|.1XhXSXhX:X8.k.k.z.z.z.k.8.3.3.l j 0 j 4 e B ( >Xv.r.r.i.i.",
"P @.@.#.L L J I f f 9 0 d s s J F L L #.L G p f D f f q F D L ;.;.<.<.Z.<.<.<.<.6.E T T l l v l l l H k k ~ e r r r t t t t t t ",
"D J D U L P f J s c q q q 5 s q p D D p 7 q 7 q 7 s q 5 s f  ...#.X.&.&.=.=.=.=.E +.E H H l H b H l z H k t t k t r t 3 3 3 y 3 ",
"s s F 0 6 = = , q 7 7 q q 5 7 q 7 5 5 , : , = : - , , 8 S S S c P I +.+.+.+.+.O.v x g d j r r H k l l k e e e z t e e - 2 ; ; - ",
"f 9 g 5 D G @.$.Q G L L Q &.K D q , 5 9 q q w 8 7 s s q q s g E o.O.=.=.4.4.=.=.4.+.E +.8.8._ r 3.7.k.:X7.1.[ U.7.4.C V A z 4 y ",
"f d d 9 U | P f q , D D s f 9 g 5 : , 5 5 , , , < 6 w q s h 9 n +.+.O.=.4.4.=.=.4.1.8.T T T z < 1.' O.=.4.G.5.} 4.] 1.C B e 0 A ",
"f D 5 q D U D G s 5 s f s s 0 9 6 5 7 5 5 = : = : = , 5 0 w 9 g x n n ' 1.1.+.O.' j d d 0 0 k < v +.O.O.=.4.[ D.S.4.4.m B y z k ",
"l.#.W j.s 9 3 O , 5 5 , : : - X X O O X X     + : 5 6 * * * O = h j g M M M h h 0 = , = 8 6 - 3 z M n ' [ 4.5.N.{ 5.5.C B e z ; ",
"%.#.|  .Y x J U D D p q 9 5 5 5 5 5 6 , = 6 6 6 6 6 5 5 5 , 5 d j l v m m +.R n g d 0 6 w d j j E 4.7.:X>XiXaXaXiXD.S.1.3.B k e ",
"| U U D L D s 9 s f w , 5 6 , 6 < : * * + 6 6 < < 6 6 < < < 6 4 6 0 d g f K g g s g 9 5 w d w l l R R 1.4.4.D.H.Y.} +.l d 0 3 - ",
"F D f d s q q , s s q 5 < < : 5 ; * * * : * * & * * : < < < : * ; * 6 0 d 0 5 8 0 d = , 8 d l d l T ' +.=.=.4.D.5.M d w 0 < > & ",
", 5 , 9 W @.G G 8 : S F : 5 8 , , , , , : & O + * * & & & & & * d d H S p 8 , , 1 , w F T q 7 5 6 r z ^ E +.m [ [ 1./ V y 3 O 3 ",
"U L L Q.-., > , 7 1 5 7 F c , 6 < < < < < , 6 6 6 6 6 < < < < < + 2 > < 5 S F F r , , 5 q w w d q w g m ' 1.+.+.C v j t 9.9.; w ",
"U J q & s G G D q = < - & & , > & O O O : : < - < < - - & * * * % 2 * - - 8 1 > < 1 8 S q q w w s w 0 r l x x x d d 6 3 2 @ * 0 ",
"= q s 9 : s U J F = X   + O $ X X X X O * < - * : * * * & & + + $ $ > : : > + X $ 1 6 w q q w , 6 : & O , 5 0 e 8 4 t < : > + & ",
"@.G q q , S F D q : - + + X X + o X * = 5 5 , , > < < < < : > > < > 3 > > > > < & < < 1 8 r H , < < 6 w 0 g 6 - : 3 ; - ~ a a 2 ",
"s 7 s 9 , $ & # & $ : . + + o # X + & * & & + o @ @ @ @ + o o @ + X > @ > > * 3 # ; * * > * < 2 5 1 < 8 5 d 6 3 3 < > > 3 < > < ",
"5 6 7 S = 5 8 5 - & < X * o ; + * + X X + @ + + + + + 2 # + X X o o X # + 2 X X X # # > & > X & < > < : , 6 < 2 ; < 1 & < < 2 2 ",
"s 5 , 7 8 , , O   o X X + + X X X + + X X X X X + + O O : 6 8 8 1 : $ > * & & O X X + > * & O * : < : & & > + & > < 1 8 : > & > ",
"D s q 5 , & > + o o o X X X + + * * + + + + & & & > : : , , 5 , , , = > # o # : w S w w 5 6 , , $ : , q w q S S H H F ! ! H r 6 ",
", , = < * > > + X X X X X + + + + + + + + * * * & : < , , , , = , : & & + + > > * * & > # # # # @ > < 8 8 < 1 8 6 w w S 8 8 > ; ",
"= < : , , = * + + X X o o o X X o o o X X X X X + & * : = : & & = & O o $ # * * @ + + * * * & > : : 1 : : 1 8 6 q q q w 6 < < < ",
"- & , q Q Q Y q O + X X X X X X               o X X X O X X X X o o o + - - * X . o X X O : * : 9 9 w , : : 8 < < : O + + ; * - ",
"> > * * 2 X + X + X + + + o + X o o o X X o o o   o o o o o o   o + * + o o o X + @ + + & & & : # > < < < : < < * > < < < < 6 6 ",
": : * ; # X X X o o o o o o o o o o o X o o o o   o o o o o o o o o + + X X o o # + X # # + X # # > < 3 < : $ > 2 < 6 9 0 0 < : ",
"- * X X X + o     o o o o o     o o o o         o o         o o X o . .   o o o X + X + X X X X & : & > > > + > - < 6 < < < < 5 "
};
